<?xml version="1.0" encoding="UTF-8" standalone="no"?>
<!-- Created with Inkscape (http://www.inkscape.org/) -->

<svg
   xmlns:dc="http://purl.org/dc/elements/1.1/"
   xmlns:cc="http://creativecommons.org/ns#"
   xmlns:rdf="http://www.w3.org/1999/02/22-rdf-syntax-ns#"
   xmlns:svg="http://www.w3.org/2000/svg"
   xmlns="http://www.w3.org/2000/svg"
   xmlns:sodipodi="http://sodipodi.sourceforge.net/DTD/sodipodi-0.dtd"
   xmlns:inkscape="http://www.inkscape.org/namespaces/inkscape"
   version="1.1"
   id="svg2"
   width="341.44"
   height="244.48"
   viewBox="0 0 341.44 244.48"
   sodipodi:docname="closeuphand.svg"
   inkscape:version="0.92.4 (5da689c313, 2019-01-14)">
  <metadata
     id="metadata8">
    <rdf:RDF>
      <cc:Work
         rdf:about="">
        <dc:format>image/svg+xml</dc:format>
        <dc:type
           rdf:resource="http://purl.org/dc/dcmitype/StillImage" />
        <dc:title></dc:title>
      </cc:Work>
    </rdf:RDF>
  </metadata>
  <defs
     id="defs6" />
  <sodipodi:namedview
     pagecolor="#ffffff"
     bordercolor="#666666"
     borderopacity="1"
     objecttolerance="10"
     gridtolerance="10"
     guidetolerance="10"
     inkscape:pageopacity="0"
     inkscape:pageshadow="2"
     inkscape:window-width="1826"
     inkscape:window-height="1046"
     id="namedview4"
     showgrid="false"
     inkscape:zoom="1.9306283"
     inkscape:cx="180.17362"
     inkscape:cy="206.9373"
     inkscape:window-x="-11"
     inkscape:window-y="-11"
     inkscape:window-maximized="1"
     inkscape:current-layer="svg2" />
  <path
     style="fill:#000000;stroke-width:0.31999999"
     d="m 36.361731,243.12 c 0.07746,-0.748 0.274983,-2.08 0.438944,-2.96 0.453578,-2.43442 0.597664,-7.76762 0.268003,-9.92 -0.161734,-1.056 -0.281558,-3.72 -0.266268,-5.92 0.0153,-2.2 -0.21385,-6.09719 -0.509191,-8.66042 l -0.536985,-4.66043 -0.998116,-0.40053 c -0.548966,-0.2203 -1.248163,-0.53511 -1.553776,-0.69958 C 32.89873,209.73457 32.032483,209.6 31.279349,209.6 c -1.676891,0 -2.856698,-0.62157 -5.299739,-2.79212 -2.215075,-1.968 -3.146696,-3.63222 -5.512808,-9.84788 -0.937969,-2.464 -1.972826,-4.87081 -2.299683,-5.34847 -0.326857,-0.47766 -1.476998,-1.33896 -2.555868,-1.91399 C 13.227897,188.42722 10.50003,185.9943 9.7963114,184.51132 9.0408125,182.91923 6.3513149,181.12023 3.04,179.99205 l -2.88,-0.98123 -0.09488134,-2.54434 c -0.09996747,-2.68072 0.13675709,-4.37538 0.52372812,-3.74925 0.12591184,0.20373 0.92597842,0.34437 1.81801342,0.31959 0.8762268,-0.0243 2.1095574,0.0585 2.7407347,0.18412 1.1440454,0.22769 3.1724051,1.74011 3.1724051,2.36547 0,0.18113 0.612,0.41091 1.36,0.51061 0.83683,0.11156 1.483099,0.40245 1.68,0.75618 0.176,0.31618 0.932,1.19627 1.68,1.95574 1.456366,1.4787 1.509671,1.63341 1.079542,3.13318 l -0.280458,0.97791 1.480458,-0.0341 c 0.814252,-0.0187 1.89476,0.1654 2.401129,0.40924 1.176513,0.56655 3.079329,2.2913 3.079329,2.79117 0,0.3917 1.218746,2.85398 2.507978,5.06697 0.440811,0.75666 0.749963,1.87699 0.799935,2.89887 0.05115,1.0459 0.324269,2.01573 0.734095,2.60671 0.358954,0.51762 0.874316,1.51713 1.145251,2.22113 0.341271,0.88676 1.109009,1.76729 2.499017,2.86615 1.67913,1.32742 2.207288,1.57814 3.237912,1.53704 0.677326,-0.027 1.847678,0.22345 2.600778,0.55659 0.753104,0.33313 2.012781,0.64366 2.799287,0.69007 1.119744,0.0661 1.596144,0.28182 2.195715,0.99436 0.740746,0.88033 0.836374,0.90352 2.933626,0.71128 2.938947,-0.26937 4.684768,0.25328 4.954944,1.48338 0.109536,0.49871 0.102918,1.20996 -0.01469,1.58055 -0.200375,0.63132 -0.390989,0.66569 -3.023271,0.54512 -3.384973,-0.15505 -4.043158,0.0469 -4.324272,1.32681 -0.235609,1.07271 0.0486,2.37138 0.462931,2.11531 0.377066,-0.23304 0.723693,5.03463 0.501264,7.61767 -0.12558,1.45836 -0.07882,2.11678 0.140708,1.98111 0.213225,-0.13178 0.342112,0.67518 0.366662,2.29567 0.02083,1.37439 0.131232,2.93089 0.245347,3.45889 0.114119,0.528 0.105629,2.03655 -0.01888,3.35233 -0.232953,2.46205 -0.129766,3.05828 0.387379,2.2384 0.532621,-0.8444 -0.352486,6.27654 -0.903414,7.26823 -0.213568,0.38443 -0.388304,1.21243 -0.388304,1.84 V 244.48 H 38.430451 36.220899 Z M 74.56,244.03642 c 0,-0.26326 0.120224,-0.55295 0.267162,-0.64376 0.14694,-0.0908 0.514249,-1.57532 0.816249,-3.29889 0.301997,-1.72357 0.680912,-3.63825 0.842035,-4.25485 0.7512,-2.87472 0.724023,-3.4816 -0.199747,-4.46034 -0.48175,-0.51042 -1.341209,-1.01532 -1.909907,-1.12201 -0.568701,-0.10669 -1.113024,-0.39991 -1.20961,-0.65161 -0.09659,-0.2517 -0.794489,-0.84739 -1.550896,-1.32376 -1.887961,-1.189 -2.153382,-1.62556 -2.16511,-3.5612 l -0.01018,-1.68 1.28,1.28 c 0.704,0.704 1.46,1.28249 1.68,1.28553 0.22,0.003 0.734173,0.35791 1.142608,0.78859 0.604502,0.63744 0.849293,0.71644 1.316253,0.42482 0.46399,-0.28977 0.786189,-0.19613 1.685587,0.48988 0.611571,0.46646 1.191334,0.76873 1.288365,0.6717 0.09703,-0.097 0.893097,0.55166 1.769043,1.44153 1.62647,1.65233 2.318144,1.99186 2.318144,1.13795 0,-0.35533 0.353216,-0.47344 1.36,-0.45474 0.748,0.0139 1.205456,0.0894 1.01657,0.16782 -0.18889,0.0784 -0.285002,0.53503 -0.213581,1.01473 0.108614,0.72955 0.442336,0.99383 2.040617,1.61598 1.947021,0.7579 4.13553,0.7988 4.374548,0.0817 0.06335,-0.19005 0.31918,-0.34554 0.568512,-0.34554 0.249334,0 0.453334,-0.2006 0.453334,-0.44576 0,-0.49934 0.675811,-0.83424 1.683453,-0.83424 0.36911,0 1.113331,-0.13712 1.653827,-0.30472 2.023395,-0.6274 5.550864,-1.30215 8.196024,-1.56776 2.34291,-0.23525 2.86852,-0.40142 3.68,-1.16342 1.48754,-1.39681 2.71846,-1.78313 5.00909,-1.57206 1.10968,0.10225 2.51608,0.3381 3.12531,0.5241 0.9535,0.2911 2.94026,0.33073 5.2923,0.10556 0.352,-0.0337 1.216,-0.22222 1.92,-0.41894 3.42857,-0.95802 5.59,-0.79209 11.2,0.85978 3.38075,0.99547 4.57175,1.32617 5.28,1.46608 1.97257,0.38968 2.51373,0.56599 4.32,1.40745 2.602,1.21215 6.52981,1.93008 11.52,2.10565 6.95373,0.24464 7.26487,0.28889 16.48,2.34324 2.57847,0.57483 13.45087,0.72741 20.64,0.28966 3.55846,-0.21668 12.73531,-0.62176 15.68,-0.69214 0.88,-0.021 2.104,0.0624 2.72,0.1855 0.616,0.12307 1.912,0.30914 2.88,0.4135 1.80551,0.19464 2.16686,0.27379 6.56,1.43685 1.408,0.37275 4,0.75224 5.76,0.8433 3.83143,0.19823 7.19911,0.69926 7.74496,1.15228 0.52276,0.43386 2.53192,0.9456 3.93504,1.00228 1.07092,0.0433 1.12435,-0.007 1.21926,-1.14452 0.0991,-1.18753 0.89891,-2.01443 1.51798,-1.56934 0.58704,0.42206 1.09853,1.62251 0.77621,1.82172 -0.1724,0.10655 -0.31345,0.49722 -0.31345,0.86817 0,0.37094 0.0842,0.59021 0.1872,0.48724 0.39564,-0.39563 2.07505,0.5076 3.14423,1.69106 0.61467,0.68036 1.54825,1.45973 2.07463,1.73193 1.42082,0.73473 4.59741,0.39839 7.79701,-0.82557 2.74098,-1.04852 3.89382,-1.72246 5.51693,-3.22515 0.528,-0.48882 1.04597,-0.88944 1.15104,-0.89025 0.10507,-9.6e-4 0.48468,-0.25348 0.84359,-0.56148 0.3589,-0.308 1.19387,-0.992 1.85548,-1.52 3.21906,-2.56899 5.45477,-4.48192 5.6905,-4.86895 0.14334,-0.23533 0.82554,-1.03609 1.51601,-1.77947 0.69047,-0.74337 1.2572,-1.49883 1.25939,-1.6788 0.004,-0.33131 2.74484,-3.31106 4.10353,-4.46127 0.63237,-0.53535 0.78394,-0.55835 1.04603,-0.15879 0.25247,0.3849 0.42435,0.31026 0.97491,-0.42336 0.36762,-0.48985 1.2175,-1.49724 1.88863,-2.23866 0.67113,-0.74141 1.17079,-1.39746 1.11037,-1.45789 -0.14931,-0.14931 -10.58929,-1.03 -12.03651,-1.01537 -0.63636,0.006 -1.33,-0.19672 -1.54141,-0.45146 -0.31169,-0.37556 -0.22904,-0.56496 0.43703,-1.00138 0.77237,-0.50607 0.82141,-0.69634 0.82141,-3.18671 0,-2.52793 -0.0349,-2.65728 -0.76712,-2.84105 -1.34564,-0.33773 -2.59658,-3.17925 -3.29474,-7.48402 -0.17914,-1.10459 0.40341,-2.95282 0.93071,-2.95282 0.1863,0 0.23007,0.61006 0.10905,1.52 -0.42694,3.21021 2.11612,9.05068 3.71929,8.54185 0.59619,-0.18923 1.54281,0.49508 1.54281,1.11529 0,0.18858 -0.27166,0.34286 -0.60368,0.34286 -0.69053,0 -0.90183,0.90372 -0.86166,3.68527 0.0139,0.96517 -0.11866,1.76395 -0.29466,1.77507 -0.176,0.0111 -0.032,0.13625 0.32,0.27805 0.91172,0.36729 2.72,0.0384 2.72,-0.49471 0,-0.49476 0.82118,-0.60717 1.10311,-0.15101 0.0995,0.16097 -2e-5,0.3656 -0.22112,0.45473 -0.22109,0.0891 0.42601,0.17344 1.43801,0.18734 1.43345,0.0197 1.84,-0.0808 1.84,-0.45474 0,-0.53375 0.62986,-0.57532 2.94298,-0.19424 l 1.50298,0.24761 -0.19637,-2.10293 c -0.10801,-1.15662 -0.38128,-2.28784 -0.60728,-2.51384 -0.24076,-0.24077 -1.24549,-0.42178 -2.4266,-0.43719 -1.10864,-0.0145 -2.11012,-0.0833 -2.2255,-0.15306 -0.11539,-0.0697 -0.0434,-0.48556 0.16,-0.92407 0.4071,-0.87772 1.16979,-1.08387 1.16979,-0.31618 0,0.35938 0.20963,0.43348 0.80416,0.28426 0.44228,-0.111 0.99253,-0.0455 1.22278,0.1456 0.25254,0.20959 1.05564,0.272 2.02412,0.15729 1.48005,-0.17529 1.59412,-0.24965 1.45991,-0.9517 -0.16424,-0.85918 0.2902,-1.0031 0.88903,-0.28155 0.62827,0.75702 1.14807,0.57587 2.33864,-0.81505 0.90182,-1.05356 1.16437,-1.69499 1.40808,-3.44 0.64997,-4.65387 -0.0832,-7.47788 -2.22972,-8.58787 -3.75734,-1.943 -7.82485,-2.25225 -11.76824,-0.89475 -1.31382,0.45228 -2.71276,0.90107 -3.10876,0.9973 -0.396,0.0962 -0.72,0.30219 -0.72,0.45768 0,0.15548 -0.216,0.28269 -0.48,0.28269 -1.03347,0 -0.39638,-0.83843 1.20042,-1.5798 2.77725,-1.28942 4.09427,-1.61995 7.28668,-1.82872 2.38531,-0.156 3.45687,-0.0802 4.9338,0.3492 2.41454,0.70193 5.21196,2.48696 5.67428,3.62076 1.15078,2.82217 0.73228,8.49917 -0.80327,10.89651 -0.91734,1.43218 -2.98593,2.62205 -4.55844,2.62205 -0.86487,0 -0.93102,0.402 -0.56612,3.44 0.14009,1.16623 0.34448,1.68 0.66836,1.68 0.48757,0 3.71137,-3.18063 5.36429,-5.29245 0.528,-0.67459 1.21725,-1.52375 1.53166,-1.88703 0.31442,-0.36329 0.98311,-1.52452 1.48598,-2.58052 0.8984,-1.88658 0.91352,-1.8996 0.86834,-0.74812 -0.0253,0.64454 -0.18998,1.14854 -0.36598,1.12 -0.176,-0.0285 -0.36512,0.41612 -0.42028,0.98812 -0.0551,0.572 -0.2,1.04 -0.32188,1.04 -0.12188,0 -0.39722,0.396 -0.61184,0.88 -0.32922,0.74239 -3.01846,4.10477 -8.96012,11.2029 -0.62746,0.74959 -1.34391,1.7543 -1.5921,2.23269 -0.24819,0.47839 -0.56589,0.94509 -0.706,1.0371 -0.14011,0.092 -0.47899,0.59931 -0.75306,1.12731 -0.39779,0.76634 -0.70728,0.96 -1.53419,0.96 -0.86948,0 -1.14792,0.19909 -1.73336,1.23939 -0.38362,0.68167 -1.02292,1.41356 -1.42067,1.62643 -1.19659,0.64039 -3.85822,3.41078 -5.24007,5.45418 -0.71412,1.056 -1.3812,1.992 -1.48241,2.08 -0.10121,0.088 -0.75379,0.808 -1.45018,1.6 -1.57305,1.78901 -3.7851,3.54431 -5.41347,4.29565 -1.15502,0.53295 -2.39983,0.56159 -18.24,0.41967 -18.35267,-0.16442 -19.77381,-0.27966 -24.57774,-1.99293 -3.55842,-1.26907 -3.43104,-1.2558 -11.54263,-1.20248 -5.73341,0.0377 -7.6012,-0.0446 -7.6049,-0.33497 -0.004,-0.29682 -0.0604,-0.29763 -0.24738,-0.004 -0.1462,0.22994 -0.90674,0.35701 -1.91537,0.32 -0.9201,-0.0338 -1.67278,0.045 -1.67263,0.17503 1.6e-4,0.13003 -0.32372,0.23785 -0.71972,0.23961 -0.396,0.002 -4.80863,0.0713 -9.80586,0.15452 l -9.08585,0.15133 -4.67415,-1.27175 c -2.57077,-0.69946 -5.033,-1.42818 -5.47161,-1.61938 -0.4386,-0.19119 -1.6626,-0.40936 -2.72,-0.48482 -2.72828,-0.19471 -5.65572,-0.50598 -8.16253,-0.86792 -0.792,-0.11435 -2.16,-0.27693 -3.04,-0.36131 -1.64175,-0.15741 -4.42573,-0.71014 -5.28,-1.0483 -0.264,-0.1045 -0.59721,-0.16407 -0.74047,-0.13238 -0.14325,0.0317 -0.79125,-0.085 -1.44,-0.25926 -0.64874,-0.17429 -1.8913,-0.40202 -2.76124,-0.50608 -0.86993,-0.10405 -1.72784,-0.2795 -1.90646,-0.38989 -0.17862,-0.11039 -0.62858,-0.2331 -0.99991,-0.27269 -1.38697,-0.14788 -3.35192,-0.80404 -3.35192,-1.11932 0,-0.1796 -0.13427,-0.24357 -0.29838,-0.14214 -0.16411,0.10142 -1.13611,-0.1904 -2.16,-0.6485 -1.93263,-0.86469 -2.90214,-1.14104 -4.26162,-1.21476 -0.44,-0.0239 -0.9058,-0.18738 -1.0351,-0.36338 -0.15224,-0.20722 -0.23683,-0.1973 -0.24,0.0282 -0.003,0.19148 -0.48934,0.36636 -1.08143,0.38862 -0.59209,0.0223 -1.70034,0.18063 -2.46278,0.35194 -0.76243,0.17131 -1.49204,0.24608 -1.62135,0.16616 -0.12931,-0.0799 -0.33507,0.0164 -0.45723,0.21407 -0.15737,0.25464 -0.3023,0.23284 -0.49721,-0.0748 -0.20646,-0.32583 -0.27632,-0.33325 -0.28,-0.0298 -0.006,0.46486 -3.87674,0.25234 -4.84526,-0.26599 -0.30666,-0.16414 -0.85503,-0.29842 -1.2186,-0.29842 -0.36357,0 -0.66104,-0.16163 -0.66104,-0.35918 0,-0.24059 -0.13207,-0.25606 -0.4,-0.0469 -0.22,0.17179 -0.976,0.46221 -1.68,0.64539 -0.704,0.18317 -2.27084,0.70226 -3.48187,1.15352 -1.21102,0.45126 -2.86702,0.91125 -3.68,1.02219 -2.461856,0.33597 -2.706944,0.38151 -4.151673,0.7715 -0.766448,0.2069 -1.585146,0.30265 -1.819328,0.21278 -0.234179,-0.0899 -0.471088,-0.0285 -0.526458,0.13635 -0.105433,0.31391 -2.273763,0.57056 -7.188397,0.85085 l -2.927721,0.16698 -0.218717,1.64324 c -0.120294,0.90434 -0.530818,2.7238 -0.912274,4.0438 L 84,244.32 l -3.119898,0.0916 -3.119897,0.0916 0.610211,-1.53158 c 0.335616,-0.84238 0.838685,-1.96359 1.117926,-2.49159 0.279245,-0.528 0.508602,-1.12208 0.509687,-1.32018 9.6e-4,-0.1981 0.36807,-1.188 0.815526,-2.19978 0.447456,-1.01178 0.771456,-1.87538 0.72,-1.91912 -0.153241,-0.13026 -2.133645,-1.12104 -2.237664,-1.11949 -0.05274,6.4e-4 -0.130502,0.46879 -0.172803,1.04 -0.0423,0.57122 -0.402979,2.91057 -0.801504,5.19857 l -0.724595,4.16 -1.518493,0.0975 C 74.90049,244.4932 74.56,244.40774 74.56,244.03642 Z M 283.64462,242.96 c 0.42648,-0.836 1.15025,-2.06839 1.6084,-2.73864 0.45814,-0.67025 1.15564,-1.80578 1.54998,-2.52339 0.39435,-0.71761 0.86274,-1.53723 1.04087,-1.82136 0.17812,-0.28414 0.95507,-1.59661 1.72655,-2.91661 0.77147,-1.32 2.43908,-3.84 3.70579,-5.6 3.26752,-4.53997 7.7778,-11.44391 8.31298,-12.72477 0.24961,-0.5974 0.6578,-1.25545 0.90708,-1.46234 0.66721,-0.55373 4.82609,-9.10868 5.78158,-11.89289 0.4537,-1.32204 1.19448,-4.91524 1.64931,-8 0.45411,-3.08 1.02976,-6.896 1.27921,-8.48 0.33098,-2.10167 0.44879,-5.90682 0.43592,-14.08 -0.0169,-10.74674 -0.27053,-15.90874 -0.90269,-18.3734 -0.81747,-3.18713 -1.39112,-7.77608 -1.62211,-12.97609 -0.14098,-3.17378 -0.33187,-6.13051 -0.42419,-6.57051 -0.76012,-3.62247 -1.1827,-10.40813 -0.69711,-11.19383 0.13832,-0.22381 0.3954,-2.4269 0.63551,-5.44617 0.091,-1.144 0.3097,-2.58181 0.48607,-3.19513 0.17635,-0.61333 0.3972,-3.99733 0.49076,-7.52 0.19742,-7.432838 0.43603,-12.972089 0.62741,-14.56487 0.074,-0.616 0.14562,-4.648 0.15912,-8.96 0.0204,-6.532048 -0.0794,-8.373859 -0.59863,-11.04 -0.34275,-1.76 -0.78801,-3.628643 -0.98946,-4.152544 -0.53231,-1.384282 -1.28697,-5.152163 -1.28697,-6.425594 0,-0.779465 -0.2602,-1.35142 -0.90036,-1.979078 C 306.12445,57.837251 305.30466,56.864 304.7979,56.16 c -0.50676,-0.704 -1.07743,-1.424 -1.26815,-1.6 -0.19072,-0.176 -0.78778,-0.993722 -1.32679,-1.817162 -2.06485,-3.154428 -4.96325,-6.429974 -7.0693,-7.989174 C 294.21718,44.075149 293.39608,43.52 293.309,43.52 c -0.0871,0 -1.06524,-0.612 -2.17367,-1.36 -1.10843,-0.748 -2.30333,-1.532854 -2.65533,-1.744122 -8.29795,-4.980358 -9.52537,-5.631062 -12.32,-6.53127 -5.35161,-1.723872 -6.08788,-1.885114 -6.74211,-1.476538 -0.48005,0.299799 -0.72828,0.244026 -1.32434,-0.297561 -0.40345,-0.366584 -1.1405,-0.762907 -1.63789,-0.880719 -0.73171,-0.173313 -1.02631,-0.05916 -1.54323,0.598003 -1.11379,1.415951 -2.75505,0.770303 -2.33152,-0.917184 0.11466,-0.456835 0.0849,-0.833998 -0.0662,-0.838141 -0.15108,-0.0041 -1.35469,-0.3011 -2.67469,-0.659906 -1.32,-0.358806 -2.76,-0.705509 -3.2,-0.770451 -0.44,-0.06494 -1.232,-0.188688 -1.76,-0.27499 -0.528,-0.0863 -2.328,-0.252296 -4,-0.368875 -2.41887,-0.168654 -9.75014,-1.023784 -13.6,-1.586325 -1.77985,-0.260072 -8.14339,-1.453322 -12.09649,-2.268259 -1.8912,-0.389873 -2.60368,-0.425695 -2.93859,-0.147749 -0.33663,0.279378 -0.61896,0.254327 -1.18351,-0.105011 -0.40777,-0.259554 -1.58439,-0.565951 -2.61469,-0.680883 -1.48089,-0.165194 -1.99186,-0.101662 -2.43934,0.303299 -0.52377,0.474007 -0.57963,0.460325 -0.74791,-0.183194 l -0.18187,-0.69546 -8.7388,0.196087 c -13.70214,0.307459 -20.39286,0.552077 -22.8188,0.834275 -2.58204,0.300356 -14.0094,0.20717 -15.2,-0.123951 -2.55569,-0.710771 -8.37121,-0.292999 -10.53553,0.756846 -0.47199,0.228945 -4.00762,-0.150852 -4.55529,-0.489328 -0.474,-0.29295 0.60666,-1.317874 1.59011,-1.508098 0.47339,-0.09157 2.15671,-0.469296 3.74071,-0.839401 4.00986,-0.936913 4.18212,-0.966548 6.91791,-1.19018 2.75087,-0.224864 2.63062,-0.09588 4.1169,-4.415822 0.60865,-1.769068 0.61302,-1.888066 0.0837,-2.275275 -0.47697,-0.348923 -0.56147,-0.98466 -0.57876,-4.3541972 C 169.08863,7.055529 168.96204,4.092 168.81844,2.64 L 168.55736,0 h 5.48132 c 3.01472,0 5.47599,0.036 5.46948,0.08 -0.0958,0.6474968 -2.30196,8.5006077 -2.71937,9.68 -0.31146,0.88 -0.74214,2.104 -0.95708,2.72 -0.99843,2.861429 -2.59455,6.313131 -3.24827,7.02459 -0.39651,0.431525 -0.67038,0.835134 -0.60861,0.896909 0.1826,0.1826 6.0327,0.140477 11.70517,-0.08428 6.21248,-0.246155 12.36447,-0.355063 24.04576,-0.425678 7.79065,-0.0471 8.54553,-0.09982 8.75495,-0.61154 0.60712,-1.483476 0.0787,-16.9811277 -0.63828,-18.72 -0.21237,-0.51504029 0.0772,-0.56 3.607,-0.56 h 3.8379 l 0.18843,1.36 c 0.10363,0.748 0.28656,2.6541402 0.4065,4.2358669 l 0.21806,2.8758665 1.04465,-2.2358665 C 225.71953,5.0061402 226.58062,3.1 227.05851,2 l 0.86889,-2 h 3.61793 c 3.29629,0 3.60817,0.0506254 3.50825,0.56945952 C 234.92501,1.2370887 232.78939,6.0200678 232.30734,6.72 c -0.18182,0.264 -0.50092,0.876 -0.70911,1.36 -0.2082,0.484 -0.49097,0.88 -0.62839,0.88 -0.13741,0 -0.24984,0.270368 -0.24984,0.6008176 0,0.3304499 -0.216,0.7800824 -0.48,0.9991824 -0.264,0.2191 -0.48,0.534787 -0.48,0.701526 0,0.166739 -0.41061,0.905107 -0.91246,1.640818 -1.03734,1.520728 -3.88754,7.217642 -3.88754,7.770333 0,0.200679 0.756,0.462298 1.68,0.581375 0.924,0.119078 2.112,0.347565 2.64,0.50775 1.67423,0.507927 8.75696,1.880474 10.72,2.077406 0.616,0.0618 1.12,0.134273 1.12,0.161058 0,0.09208 0.96402,0.235963 3.04,0.453735 1.144,0.120006 2.512,0.28 3.04,0.355542 1.0571,0.151241 5.79858,0.696458 6.56,0.754327 1.45002,0.110203 7.32359,1.293998 9.00839,1.815604 0.42916,0.132868 0.56808,-0.154046 0.73977,-1.527944 0.11626,-0.930342 0.56556,-4.169415 0.99843,-7.197942 0.59396,-4.155576 0.805,-7.119031 0.86023,-12.079923 L 265.44,1.5421063e-4 266.58935,7.7105318e-5 C 267.64193,6.4914432e-6 267.76817,0.10102717 268.0888,1.2 c 0.19255,0.66 0.44713,1.73874 0.56573,2.3972 0.11861,0.6584598 0.32688,1.1284525 0.46284,1.0444282 0.13595,-0.084025 0.35334,1.2492355 0.48307,2.9628 L 269.83634,10.72 270.8004,8.16 c 0.53023,-1.408 1.13996,-2.992 1.35495,-3.52 0.21499,-0.528 0.71671,-1.788 1.11493,-2.8 L 273.99433,0 h 1.71817 1.71816 l -0.64204,1.6288572 c -0.35311,0.8958714 -0.88462,2.0838714 -1.18112,2.6400001 -0.2965,0.5561283 -0.51205,1.1114413 -0.479,1.2340281 0.0331,0.1225872 -0.36934,1.1800103 -0.89421,2.3498295 -0.52486,1.1698192 -0.95429,2.3118891 -0.95429,2.5379321 0,0.226044 -0.216,0.590253 -0.48,0.809353 -0.27233,0.226016 -0.48,0.923655 -0.48,1.612516 0,0.667783 -0.13905,1.262151 -0.309,1.320817 -0.59629,0.205836 -2.25683,8.804126 -2.25312,11.666667 0.004,3.264244 0.12097,3.45391 2.51024,4.078044 4.09256,1.069078 9.71611,2.900545 9.31585,3.033966 -0.22188,0.07396 0.087,0.382576 0.6863,0.685808 0.59935,0.303232 2.7175,1.507772 4.707,2.676758 1.9895,1.168982 3.73587,2.125424 3.88082,2.125424 0.14495,0 0.44873,0.22313 0.67506,0.49584 0.43893,0.528883 3.18518,1.912493 3.58685,1.80712 0.132,-0.03463 0.24,0.08104 0.24,0.25704 0,0.176 0.108,0.287437 0.24,0.247635 0.43334,-0.130662 3.60305,2.202048 3.3586,2.471731 -0.13123,0.144784 -0.0736,0.168928 0.12807,0.05365 0.50535,-0.288861 1.86843,0.874467 1.87113,1.596921 10e-4,0.324532 0.2182,0.593863 0.4822,0.598516 0.72723,0.0128 1.31613,0.474192 1.08422,0.84943 -0.11342,0.183517 -0.0794,0.425568 0.0756,0.537888 0.25397,0.184048 1.15278,1.362598 3.73913,4.902874 0.47358,0.648256 0.87243,1.368256 0.88632,1.6 0.0139,0.231744 0.16484,0.04053 0.33543,-0.424925 0.28045,-0.765216 0.45427,-0.840384 1.81473,-0.7848 0.82752,0.03381 1.66896,-0.05804 1.86988,-0.204106 0.20327,-0.147789 0.91293,-0.07716 1.6,0.159248 l 1.2347,0.424829 0.0411,-1.614448 c 0.0226,-0.887946 0.3073,-3.054448 0.63263,-4.814448 0.91273,-4.937674 0.79443,-11.322256 -0.3113,-16.8 -0.47961,-2.376 -1.00382,-4.752 -1.16491,-5.28 C 312.89635,23.23055 311.37935,14.443673 311.1826,12.345488 310.79262,8.1867226 310.41384,2.8981306 310.40726,1.52 310.40176,0.36797338 310.51814,0 310.888,0 c 0.28622,0 0.56739,0.3969399 0.68,0.96 0.24833,1.2416308 0.752,1.2416308 0.752,0 0,-0.9200702 0.0581,-0.96 1.39703,-0.96 h 1.39703 l -0.23609,1.2 c -0.34421,1.7495715 -0.86795,2.9206259 -1.80341,4.0323552 -0.45508,0.5408445 -0.67513,1.0341229 -0.48897,1.0961738 0.18615,0.062051 0.25914,0.3195164 0.1622,0.5721456 -0.0969,0.2526288 -0.0411,0.4593254 0.12406,0.4593254 0.16518,0 0.44826,0.612 0.62907,1.36 0.54119,2.238915 0.56667,2.311145 0.89908,2.548328 0.176,0.125581 0.32705,0.341581 0.33566,0.48 0.0734,1.180339 0.61946,3.63914 1.14229,5.143892 0.34929,1.005279 0.82924,2.61978 1.06656,3.58778 0.36325,1.481661 1.0681,4.110805 1.63001,6.08 0.98749,3.460677 1.11704,4.407251 1.16054,8.48 0.0451,4.226173 -0.65417,10.559709 -1.6783,15.2 -0.6797,3.079667 -0.70007,3.52 -0.16287,3.52 0.39755,0 0.50611,0.362262 0.50611,1.688797 0,1.005142 0.20015,1.974557 0.49442,2.394688 0.35759,0.510521 0.46829,1.317801 0.4,2.916813 -0.0836,1.95752 -0.15619,2.178185 -0.63338,1.925312 -1.14668,-0.607652 -1.31829,-0.363997 -1.09478,1.55439 0.18751,1.609434 0.44848,2.701459 1.08973,4.56 0.0911,0.264 0.12912,0.624 0.0845,0.8 -0.0446,0.176 -0.0501,4.28 -0.0121,9.12 0.10602,13.527824 0.0122,16.952067 -0.49138,17.925792 -0.80475,1.556218 -1.10677,5.796228 -0.80032,11.235428 0.21008,3.72879 -0.13615,8.03525 -0.66129,8.22526 -0.16186,0.0586 -0.20305,0.47003 -0.0915,0.91435 0.11152,0.44433 0.057,0.90041 -0.12106,1.01352 -0.46931,0.29804 -1.6828,5.22996 -1.6828,6.83929 0,0.75382 0.14897,1.87363 0.33105,2.48847 0.42644,1.44003 0.40436,5.86726 -0.0375,7.51789 -0.73968,2.76323 -0.25388,9.18632 0.81859,10.82311 0.2532,0.38643 0.84557,2.21332 1.31638,4.05975 0.80068,3.14009 0.86274,3.89506 0.95978,11.67714 0.18583,14.90138 0.16948,16.92932 -0.15489,19.2 -0.17599,1.232 -0.40295,3.176 -0.50437,4.32 -0.10141,1.144 -0.2753,2.728 -0.38641,3.52 -0.11111,0.792 -0.18882,1.68916 -0.17269,1.9937 0.0161,0.30453 -0.0992,0.63314 -0.25634,0.73025 -0.15711,0.0971 -0.20904,0.37622 -0.11539,0.62026 0.27698,0.7218 -0.79955,5.84318 -1.97951,9.41711 -1.77554,5.37785 -3.41933,8.36588 -6.35634,11.55437 -1.4203,1.54191 -3.29527,3.93767 -4.16659,5.3239 -0.87132,1.38622 -2.56646,3.81641 -3.76699,5.40041 -1.93384,2.55154 -4.72879,7.5489 -4.72879,8.45505 0,0.37295 -1.97503,4.57542 -2.26758,4.82495 -0.10318,0.088 -0.35278,0.6426 -0.55467,1.23245 -0.20189,0.58984 -1.12548,2.2816 -2.05242,3.75947 l -1.68533,2.68702 -3.12539,6.4e-4 -3.12539,6.4e-4 0.7754,-1.52 z M 302.4,46.578886 c 0,-0.07761 -0.144,-0.230112 -0.32,-0.338886 -0.176,-0.108774 -0.32,-0.04527 -0.32,0.141114 0,0.186387 0.144,0.338886 0.32,0.338886 0.176,0 0.32,-0.0635 0.32,-0.141114 z M 240.19572,236.41028 c -0.64291,-1.48315 -0.64594,-1.43807 0.12428,-1.85028 0.92028,-0.49252 1.95454,0.11712 1.78034,1.04941 -0.073,0.39083 -0.14348,0.90599 -0.15656,1.14483 -0.0132,0.24187 -0.22726,0.35615 -0.4831,0.25797 -0.25264,-0.0969 -0.52456,-0.004 -0.60429,0.20577 -0.0797,0.21011 -0.37703,-0.15336 -0.66067,-0.8077 z M 106.16,218.96479 c -1.59649,-0.12589 -2.02321,-0.55336 -0.8,-0.80142 0.396,-0.0803 1.83542,-0.13191 3.1987,-0.11469 l 2.47871,0.0313 -0.18364,-1.12 c -0.30778,-1.87715 -0.35041,-1.92 -1.91039,-1.92 -1.0433,0 -1.4353,-0.1174 -1.3356,-0.4 0.0776,-0.22 0.4136,-0.3591 0.74666,-0.30912 1.74341,0.26166 3.12613,0.18742 3.24671,-0.17431 0.0773,-0.23197 0.42205,-0.32262 0.83382,-0.21928 0.48168,0.1209 0.92593,-0.0622 1.41547,-0.58324 0.58238,-0.61992 0.72275,-1.16679 0.7641,-2.97674 0.0279,-1.21952 -0.0448,-2.51016 -0.16153,-2.86807 -0.3794,-1.16358 -2.06488,-1.86059 -4.84598,-2.00401 -2.97006,-0.15315 -5.50245,0.55528 -7.02331,1.96476 -0.8496,0.78738 -0.90082,0.97052 -0.73118,2.61414 0.2108,2.04246 1.23132,3.9102 2.21583,4.05537 0.81839,0.12069 1.17231,0.9005 0.40868,0.9005 -0.45,0 -0.51865,0.28322 -0.42667,1.76043 0.10243,1.64489 0.0624,1.76041 -0.61038,1.76 -0.81477,-6.4e-4 -0.96617,-0.47749 -0.24,-0.75615 0.33576,-0.12884 0.48,-0.65258 0.48,-1.74287 0,-1.33672 -0.10987,-1.60874 -0.77153,-1.91021 -0.55342,-0.25216 -0.91527,-0.84599 -1.28,-2.10062 -0.64876,-2.23167 -0.63799,-3.05125 0.0536,-4.08208 0.91237,-1.35982 1.41963,-1.71963 3.47074,-2.46184 2.53534,-0.91743 5.59748,-0.94525 7.64072,-0.0694 1.95801,0.83931 2.39103,1.31827 2.67177,2.95532 0.24955,1.45507 -0.19267,4.72743 -0.63885,4.72743 -0.14657,0 -0.26649,0.19944 -0.26649,0.4432 0,0.60913 -1.40346,1.4768 -2.38874,1.4768 -0.87494,0 -0.97746,0.36898 -0.61126,2.2 0.11,0.55 0.398,1 0.64,1 0.242,0 0.44,0.216 0.44,0.48 0,0.39034 -0.46325,0.46923 -2.48,0.42232 -1.364,-0.0317 -3.164,-0.11161 -4,-0.17753 z m 5.52,-3.28479 c 0,-0.176 0.144,-0.32 0.32,-0.32 0.176,0 0.32,0.144 0.32,0.32 0,0.176 -0.144,0.32 -0.32,0.32 -0.176,0 -0.32,-0.144 -0.32,-0.32 z m -5.6,-0.96 c 0.10877,-0.176 0.40527,-0.32 0.65889,-0.32 0.25361,0 0.46111,0.144 0.46111,0.32 0,0.176 -0.2965,0.32 -0.65889,0.32 -0.36238,0 -0.56988,-0.144 -0.46111,-0.32 z m -0.32,-0.96 c -0.10877,-0.176 0.0352,-0.32 0.32,-0.32 0.28477,0 0.42877,0.144 0.32,0.32 -0.10877,0.176 -0.25277,0.32 -0.32,0.32 -0.0672,0 -0.21123,-0.144 -0.32,-0.32 z m 4.32927,0.0125 c -0.25891,-0.16373 -0.38752,-0.38092 -0.2858,-0.48263 0.25208,-0.25208 1.23653,0.14947 1.23653,0.50437 0,0.36473 -0.35238,0.35667 -0.95073,-0.0217 z M 281.28,213.44 c 0,-0.176 0.216,-0.32 0.48,-0.32 0.264,0 0.48,0.144 0.48,0.32 0,0.176 -0.216,0.32 -0.48,0.32 -0.264,0 -0.48,-0.144 -0.48,-0.32 z m -9.43006,-1.26392 c -0.24467,-0.39588 0.51854,-0.75883 1.26827,-0.60314 0.28358,0.0589 0.51247,0.25106 0.50864,0.42706 -0.01,0.44416 -1.51881,0.59371 -1.77691,0.17608 z m -1.76352,-1.76835 c -0.2524,-0.30412 -0.27668,-0.48773 -0.0645,-0.48773 0.38674,0 0.83763,0.6071 0.61571,0.82902 -0.0805,0.0805 -0.32859,-0.073 -0.55122,-0.34129 z m 1.49358,-0.0544 c -0.41731,-0.41731 -0.21808,-0.75333 0.44667,-0.75333 0.3724,0 0.61075,0.16773 0.54,0.38 -0.15588,0.46763 -0.6902,0.6698 -0.98667,0.37333 z m 6.9,-0.32914 c -0.8914,-0.62181 -0.92465,-1.06419 -0.08,-1.06419 0.352,0 0.64,0.144 0.64,0.32 0,0.176 0.216,0.32 0.48,0.32 0.264,0 0.48,0.216 0.48,0.48 0,0.60958 -0.59756,0.58764 -1.52,-0.0558 z m -28.8,-0.31244 c -0.24788,-0.1023 -0.4,-0.8008 -0.4,-1.83675 v -1.67166 l -4.08,0.0183 -4.08,0.0183 -0.16,1.28 c -0.12377,0.99018 -0.31125,1.30161 -0.828,1.37544 -0.87289,0.12472 -1.66437,-0.77107 -1.14244,-1.293 0.73342,-0.73342 0.37801,-1.70059 -1.06956,-2.9106 -2.02354,-1.69147 -1.88128,-2.34837 0.9973,-4.6052 1.63747,-1.2838 5.68805,-2.98633 9.8827,-4.15388 1.42375,-0.39628 4.38009,-0.34355 5.21698,0.0931 0.47466,0.24763 1.04302,0.45112 1.26302,0.45221 0.22,9.6e-4 0.4,0.15447 0.4,0.34086 0,0.18638 0.1282,0.25965 0.28488,0.16282 0.15668,-0.0968 0.50368,0.29066 0.7711,0.86111 0.59806,1.27571 0.45299,4.07025 -0.26845,5.17129 -0.55948,0.85387 -1.97701,1.46588 -3.39528,1.46588 -0.57371,0 -0.91225,0.16824 -0.91225,0.45333 0,0.24934 -0.14897,0.50299 -0.33104,0.56368 -0.18207,0.0607 -0.43407,1.04283 -0.56,2.18252 -0.22805,2.06391 -0.54133,2.46459 -1.58896,2.03222 z m -2.32,-5.5152 c 0,-0.17861 -0.23825,-0.45808 -0.52944,-0.62104 -0.33606,-0.18807 -0.45175,-0.49873 -0.31674,-0.85056 0.18751,-0.48865 0.29758,-0.50183 0.92944,-0.11134 0.85051,0.52562 5.35961,0.51427 6.72248,-0.0169 1.03679,-0.40409 1.58426,-1.61941 1.44989,-3.21863 -0.0826,-0.98337 -0.28351,-1.23288 -1.47783,-1.83559 -1.69702,-0.8564 -3.22636,-0.76602 -6.89591,0.40753 -4.03401,1.2901 -6.91024,2.72203 -7.79641,3.88141 -0.72647,0.95046 -0.74769,1.07209 -0.27034,1.54944 0.7313,0.7313 1.69075,0.92495 5.15163,1.03979 1.9045,0.0632 3.03323,-0.0202 3.03323,-0.2241 z m -56.85889,3.41593 c -0.18315,-0.40286 -0.27234,-1.54808 -0.1982,-2.54493 0.12012,-1.61507 0.0625,-1.83539 -0.5287,-2.02304 -0.36493,-0.11582 -0.58851,-0.33192 -0.49686,-0.48022 0.0916,-0.14829 -2.1e-4,-0.32524 -0.20414,-0.39322 -0.20393,-0.068 -0.39613,-0.46771 -0.42711,-0.8883 -0.031,-0.42059 -0.33099,-0.91727 -0.66668,-1.10374 -2.50639,-1.39225 -3.09032,-5.03495 -1.25233,-7.81235 0.66694,-1.0078 1.43037,-1.5929 3.15631,-2.419 2.83168,-1.35535 3.22155,-1.46805 5.23575,-1.51342 2.58033,-0.0581 3.63801,0.97345 5.13237,5.00574 0.90167,2.43301 0.53651,5.74288 -0.77868,7.05807 -0.41406,0.41406 -0.75284,0.65986 -0.75284,0.54622 0,-0.11364 -0.21142,0.0729 -0.46982,0.41455 -0.31001,0.40986 -0.47329,1.41034 -0.48,2.94116 -0.008,1.81949 -0.1113,2.32 -0.47892,2.32 -0.65284,0 -1.15676,-1.06908 -1.21709,-2.58211 l -0.051,-1.27911 -1.69416,0.0906 c -1.92306,0.10285 -1.9258,0.10671 -2.26725,3.19602 -0.24057,2.17654 -0.93944,2.83351 -1.56064,1.46707 z m 5.02955,-6.35823 c 3.59648,-0.89565 4.91702,-4.94881 2.98319,-9.15637 -0.46965,-1.02184 -0.84027,-1.93923 -0.82362,-2.03865 0.053,-0.31635 -3.56006,-0.10546 -4.89023,0.28543 -1.78994,0.526 -3.66532,1.66089 -4.4146,2.6715 -0.34912,0.47089 -0.70306,1.56692 -0.78653,2.43563 -0.18785,1.95492 0.4274,3.02172 2.19156,3.80007 0.68726,0.30322 1.24957,0.74809 1.24957,0.98861 0,0.24052 -0.144,0.3483 -0.32,0.23953 -0.17726,-0.10956 -0.32,0.12468 -0.32,0.52511 0,0.56225 0.0853,0.63756 0.384,0.33889 0.53344,-0.53344 1.51912,-0.48033 1.7394,0.0937 0.18612,0.48502 0.36731,0.47396 3.00726,-0.18347 z m -47.66254,1.49963 c -0.20364,-0.24536 -0.45733,-1.18136 -0.56376,-2.08 -0.18124,-1.53034 -0.25032,-1.63388 -1.09005,-1.63388 -0.49309,0 -0.99181,-0.15416 -1.10827,-0.34258 -0.24789,-0.40111 -2.34267,-0.12114 -3.90604,0.52206 -0.9214,0.37907 -1.04,0.5696 -1.04,1.67086 0,0.68364 -0.0963,1.33931 -0.21403,1.45703 -0.40222,0.40221 -1.38597,-0.84486 -1.38597,-1.75697 0,-0.67512 -0.15424,-0.9104 -0.59684,-0.9104 -2.3972,0 -4.43,-5.05166 -3.39995,-8.4491 0.67679,-2.23224 1.83173,-3.57571 3.93108,-4.57278 1.63672,-0.77734 2.19008,-0.86791 5.34571,-0.87496 4.75185,-0.0106 7.61277,0.50389 8.66764,1.55877 1.3238,1.3238 1.30202,5.11176 -0.0416,7.24025 -0.40424,0.64035 -1.34755,1.68862 -2.09626,2.32948 l -1.36127,1.1652 0.0277,2.56157 c 0.0282,2.60821 -0.28633,3.17782 -1.16802,2.11545 z m -9.15785,-4.97813 c 0.10342,-0.16734 0.207,-0.80879 0.23018,-1.42545 0.0483,-1.28435 0.54653,-1.61782 1.46062,-0.97757 0.4542,0.31813 0.58853,0.68517 0.47263,1.29142 -0.14259,0.74592 -0.0806,0.82117 0.51945,0.63072 0.37475,-0.11894 1.0685,-0.28646 1.54168,-0.37226 0.47318,-0.0858 1.01441,-0.25649 1.20275,-0.37931 0.18833,-0.12281 0.98913,-0.36805 1.77957,-0.54495 1.24683,-0.27907 1.45903,-0.44805 1.60246,-1.2761 0.23379,-1.34972 1.19608,-1.45961 1.63963,-0.18724 0.18885,0.54175 0.43728,0.98388 0.55207,0.98253 0.36504,-0.004 1.79587,-2.66898 2.14654,-3.99754 0.68243,-2.58552 0.0698,-3.36523 -3.21785,-4.09541 -3.78453,-0.84055 -9.02304,-0.1706 -10.40255,1.33037 -0.816,0.88784 -1.59745,2.23708 -1.59745,2.75812 0,0.27258 -0.1753,0.7763 -0.38955,1.11937 -0.48306,0.7735 0.0723,3.14317 1.06248,4.5338 0.67744,0.95137 1.07805,1.12611 1.39734,0.6095 z M 265.24529,199.76 c 0.8068,-1.4678 1.2596,-1.85187 1.6866,-1.43057 0.33907,0.33454 0.24058,0.55192 -0.53846,1.18849 -1.13023,0.92353 -1.57415,1.01713 -1.14814,0.24208 z M 5.76,185.92 c -0.2884134,-0.18639 -0.3278826,-0.31216 -0.098885,-0.3151 0.2096131,-0.003 0.4701113,0.1391 0.5788854,0.3151 0.2455376,0.39729 0.1347594,0.39729 -0.4800004,0 z m 110.55921,-8.5265 c -0.28957,-0.28958 -0.39277,-0.61358 -0.22932,-0.72 0.40992,-0.2669 1.13452,-3.44568 0.8795,-3.85831 -0.1228,-0.19869 -1.5574,-0.33519 -3.52285,-0.33519 h -3.31569 l -0.16319,0.88 c -0.0897,0.484 -0.16384,1.35798 -0.16465,1.94218 -9.6e-4,0.5842 -0.17118,1.26668 -0.37861,1.51661 -0.32394,0.39032 -0.50572,0.37847 -1.28864,-0.084 -0.55762,-0.32939 -0.80891,-0.66973 -0.64724,-0.87661 0.14534,-0.18599 0.35759,-1.17003 0.47167,-2.18675 0.17891,-1.59454 0.12993,-1.87265 -0.35639,-2.02366 -1.32608,-0.41177 -2.20879,-1.1046 -2.87597,-2.25731 -0.39169,-0.67675 -0.69298,-1.37445 -0.66953,-1.55045 0.0235,-0.176 -0.0617,-0.55691 -0.1892,-0.84646 -0.36304,-0.8244 0.40052,-3.1143 1.29719,-3.8903 0.86993,-0.75285 1.73754,-2.07351 1.10564,-1.68297 -0.79407,0.49076 -0.28121,-0.46704 0.57747,-1.07848 0.97491,-0.6942 1.80808,-0.88783 1.4706,-0.34179 -0.31791,0.51438 1.37314,0.37118 2.49589,-0.21136 1.0454,-0.54241 4.70539,-0.9363 4.70253,-0.5061 -9.6e-4,0.13061 -0.66191,0.27577 -1.46897,0.32259 -5.04337,0.29259 -8.61944,3.32398 -8.25933,7.00133 0.17536,1.7908 0.66627,2.65868 1.86749,3.30156 0.74065,0.39638 0.90371,0.39816 1.14209,0.0125 0.15294,-0.24747 0.21716,-0.5485 0.14271,-0.66896 -0.21787,-0.35251 0.75567,-1.00758 1.14231,-0.76862 0.20842,0.12881 0.26921,0.59835 0.14859,1.14755 -0.17799,0.8104 -0.10862,0.936 0.54126,0.97995 0.40999,0.0277 0.96143,0.0285 1.22543,0.002 0.264,-0.0268 1.52438,-0.11506 2.80086,-0.19607 3.21418,-0.20399 4.44059,-0.47183 4.98037,-1.08767 0.47663,-0.54378 0.90981,-1.66127 0.77494,-1.99913 -0.0419,-0.10495 0.0956,-0.39778 0.30553,-0.65073 0.24729,-0.29797 0.27719,-0.62515 0.0849,-0.92918 -0.16324,-0.2581 -0.29901,-0.97552 -0.3017,-1.59426 -0.01,-2.27146 -1.88428,-4.39739 -3.9249,-4.45162 -0.484,-0.0129 -0.88,-0.18418 -0.88,-0.38069 0,-0.21138 0.33664,-0.29295 0.82426,-0.19974 0.51392,0.0982 0.71111,0.0444 0.52373,-0.14297 -0.16529,-0.16529 -1.00421,-0.42866 -1.86426,-0.58525 l -1.56373,-0.28469 1.88913,0.11889 c 3.62364,0.22805 6.16468,3.02506 6.49171,7.14564 0.10769,1.35697 0.0321,2.67746 -0.18974,3.31377 -0.43004,1.23363 -1.67501,3.14633 -2.04999,3.14949 -0.14238,10e-4 -0.16988,-0.14181 -0.0611,-0.31781 0.10877,-0.176 0.039,-0.32 -0.15514,-0.32 -0.1941,0 -0.31639,0.18 -0.27175,0.4 0.0446,0.22 -0.0763,0.688 -0.26881,1.04 -0.19249,0.352 -0.44641,1.288 -0.56427,2.08 -0.43444,2.9194 -0.53463,3.2 -1.1426,3.2 -0.32544,0 -0.82864,-0.23692 -1.11822,-0.5265 z M 120.8,170.56 c 0.10877,-0.176 0.0453,-0.32 -0.14111,-0.32 -0.18639,0 -0.33889,0.144 -0.33889,0.32 0,0.176 0.0635,0.32 0.14111,0.32 0.0776,0 0.23012,-0.144 0.33889,-0.32 z m 158.99036,6.54602 c -0.10426,-0.27169 -0.1088,-0.99169 -0.0101,-1.6 0.17235,-1.06211 0.13899,-1.10752 -0.8404,-1.14391 -0.56094,-0.0208 -1.1267,-0.0213 -1.25725,-9.6e-4 -0.37582,0.0587 -1.52263,-1.02446 -1.52263,-1.43803 0,-0.66047 0.88301,-0.74188 2.24482,-0.20694 1.1417,0.44847 1.36543,0.45708 1.61532,0.0622 0.56454,-0.89211 0.27814,-1.14945 -1.68572,-1.51466 -1.45806,-0.27116 -2.04418,-0.27444 -2.20616,-0.0124 -0.27035,0.43745 -0.72464,2.83889 -0.64103,3.38865 0.0694,0.45664 -0.26164,0.508 -0.85344,0.13238 -0.32372,-0.20547 -0.29466,-0.68314 0.14308,-2.35213 l 0.54929,-2.09431 -1.45544,-1.49745 c -2.03121,-2.08982 -2.49151,-4.02757 -1.61615,-6.80357 1.17358,-3.72172 3.10881,-5.94829 5.78315,-6.65376 1.29177,-0.34077 1.76666,-0.33043 2.93297,0.0638 2.07485,0.70137 2.81871,1.29982 3.84955,3.09706 1.54988,2.70216 1.24781,5.74788 -1.00974,10.18098 -0.46486,0.91284 -0.93576,1.45377 -1.18712,1.36366 -0.22914,-0.0821 -0.33411,-0.0158 -0.23327,0.14732 0.10084,0.16317 -0.0355,0.41916 -0.30304,0.56887 -0.31303,0.17518 -0.49753,0.78097 -0.51766,1.69966 -0.0417,1.90444 -0.25382,2.60261 -0.71245,2.34518 -0.26765,-0.15024 -0.2796,-0.10526 -0.0412,0.15512 0.48262,0.5271 0.17879,2.60717 -0.38082,2.60717 -0.25027,0 -0.54034,-0.22229 -0.64459,-0.49398 z m 0.41392,-7.34602 c 0.10131,-0.264 0.45498,-0.48 0.78594,-0.48 0.76843,0 1.99901,-1.93682 3.00564,-4.73059 0.61618,-1.71015 0.71822,-2.398 0.4993,-3.36583 -0.31121,-1.37576 -1.33839,-3.00565 -2.39221,-3.79586 -0.89415,-0.67049 -3.38537,-0.948 -4.21856,-0.46992 -2.40804,1.38169 -3.52427,3.05039 -4.27183,6.38614 -0.39267,1.75217 0.16451,3.53813 1.45345,4.65885 0.66496,0.57818 0.81978,0.61023 0.97636,0.20217 0.22382,-0.58324 0.80722,-0.65079 0.73374,-0.085 -0.15559,1.19825 0.0729,1.49332 1.38389,1.7869 1.89247,0.4238 1.83957,0.42657 2.04428,-0.1069 z M 47.52,176.1029 c -2.64,-0.23361 -5.320662,-0.42228 -5.957027,-0.41926 -0.636362,0.003 -1.33,-0.20292 -1.541415,-0.45766 -0.311689,-0.37556 -0.229033,-0.56496 0.437028,-1.00138 0.772371,-0.50607 0.821414,-0.69634 0.821414,-3.18671 0,-2.52793 -0.03493,-2.65728 -0.76712,-2.84105 -1.345645,-0.33773 -2.596582,-3.17925 -3.294742,-7.48402 -0.179143,-1.10459 0.403411,-2.95282 0.930713,-2.95282 0.186301,0 0.230071,0.61006 0.109053,1.52 -0.426941,3.21021 2.116112,9.05068 3.71929,8.54185 0.596188,-0.18923 1.542806,0.49508 1.542806,1.11529 0,0.18858 -0.271658,0.34286 -0.60368,0.34286 -0.690534,0 -0.901834,0.90372 -0.861664,3.68527 0.01395,0.96517 -0.118656,1.76395 -0.294656,1.77507 -0.176,0.0111 -0.032,0.13625 0.32,0.27805 0.911722,0.36729 2.72,0.0384 2.72,-0.49471 0,-0.49476 0.821184,-0.60717 1.103107,-0.15101 0.09949,0.16097 -1.6e-5,0.3656 -0.221113,0.45473 -0.221098,0.0891 0.426006,0.17344 1.438006,0.18734 1.43345,0.0197 1.84,-0.0808 1.84,-0.45474 0,-0.53375 0.629859,-0.57532 2.942982,-0.19424 l 1.50298,0.24761 -0.196375,-2.10293 c -0.108006,-1.15662 -0.38128,-2.28784 -0.607273,-2.51384 -0.240765,-0.24077 -1.245492,-0.42178 -2.426605,-0.43719 -1.10864,-0.0145 -2.110115,-0.0833 -2.225501,-0.15306 -0.332976,-0.20122 0.486794,-1.72109 0.929792,-1.72385 0.556077,-0.003 0.499258,-0.49753 -0.129536,-1.12632 -0.29529,-0.29529 -0.599402,-1.25663 -0.687472,-2.17319 -0.153376,-1.5962 -0.617965,-2.46299 -1.320134,-2.46299 -0.433053,0 -0.451706,-1.17496 -0.02285,-1.44 0.176,-0.10877 0.32,-0.62977 0.32,-1.15777 0,-0.56879 0.132531,-0.87809 0.325219,-0.759 0.17887,0.11054 0.227785,0.37104 0.108697,0.57888 -0.119088,0.20784 -0.102505,0.27496 0.03686,0.14915 0.139357,-0.12581 0.486445,-0.1079 0.771302,0.0398 0.284861,0.14769 0.805927,0.13967 1.157927,-0.0178 0.588918,-0.26351 0.582499,-0.27545 -0.08044,-0.14964 -0.396243,0.0752 -0.639744,0.006 -0.541114,-0.15343 0.09863,-0.15959 0.532237,-0.29016 0.963572,-0.29016 0.431337,0 1.030841,-0.288 1.332233,-0.64 0.393203,-0.45923 0.912035,-0.62951 1.836867,-0.60288 0.708887,0.0204 1.000884,0.098 0.648884,0.17246 -0.352,0.0744 -0.964,0.20448 -1.36,0.28898 -0.802717,0.17129 -0.990109,0.78144 -0.24,0.78144 0.264,0 0.48,0.204 0.48,0.45334 0,0.24933 0.18,0.52596 0.4,0.61473 0.238956,0.0964 0.17454,0.17158 -0.16,0.18667 -0.396189,0.0179 -0.56,0.29157 -0.56,0.93567 0,1.15025 -0.994996,2.10318 -1.897069,1.81687 -0.567491,-0.18011 -0.658339,-0.0806 -0.631034,0.69116 l 0.03189,0.90156 0.256205,-0.8 0.256205,-0.8 0.0319,0.85333 c 0.01754,0.46934 -0.09097,0.90134 -0.241139,0.96 -0.15017,0.0587 -0.352452,1.00597 -0.449514,2.10511 -0.175504,1.98741 -0.172202,1.99738 0.59719,1.80427 0.42552,-0.1068 0.962055,-0.0378 1.192301,0.15325 0.252535,0.20959 1.055639,0.272 2.024122,0.15729 1.480045,-0.17529 1.594115,-0.24965 1.459907,-0.9517 -0.164243,-0.85918 0.290198,-1.0031 0.88903,-0.28155 0.628272,0.75702 1.148071,0.57587 2.33864,-0.81505 0.901818,-1.05356 1.164368,-1.69499 1.40808,-3.44 0.649975,-4.65387 -0.08324,-7.47788 -2.229718,-8.58787 -3.757344,-1.943 -7.824854,-2.25225 -11.768237,-0.89475 -1.313821,0.45228 -2.712765,0.90107 -3.108765,0.9973 -0.396,0.0962 -0.72,0.30219 -0.72,0.45768 0,0.15548 -0.216,0.28269 -0.48,0.28269 -1.033472,0 -0.39638,-0.83843 1.200423,-1.5798 2.777248,-1.28942 4.094272,-1.61995 7.286681,-1.82872 2.385309,-0.156 3.456868,-0.0802 4.933792,0.3492 2.414548,0.70193 5.211962,2.48696 5.674285,3.62076 0.653104,1.60168 0.834051,4.40214 0.45185,6.9932 -0.603283,4.08984 -2.148381,5.88881 -5.528954,6.4374 -1.176553,0.19093 -1.226745,0.39761 -0.852697,3.51128 0.164908,1.37275 0.31816,1.68022 0.877219,1.76 0.483443,0.069 0.677395,0.32574 0.677395,0.89668 0,0.75348 -0.102352,0.80139 -1.76,0.82382 -0.968,0.0131 -3.92,-0.16731 -6.56,-0.40092 z M 49.28,164.48 c 0,-1.20889 -0.117334,-1.6 -0.48,-1.6 -0.49983,0 -0.677344,1.67339 -0.285763,2.69383 C 48.901894,166.58404 49.28,166.04395 49.28,164.48 Z m -0.964899,-3.58111 c 0.0071,-0.78087 -0.563063,-1.01664 -1.117555,-0.46215 -0.61288,0.61288 -0.611722,1.16326 0.0025,1.16326 0.264,0 0.482205,0.18 0.484899,0.4 0.0076,0.61828 0.624391,-0.45944 0.630202,-1.10111 z M 51.84,161.29107 c 0,-0.43361 -0.170563,-0.54655 -0.64,-0.42379 -0.749168,0.19591 -0.775802,0.29276 -0.24,0.87264 0.493395,0.53398 0.88,0.3368 0.88,-0.44885 z M 49.12,161.28 c 0.108774,-0.176 0.04527,-0.32 -0.141114,-0.32 -0.186387,0 -0.338886,0.144 -0.338886,0.32 0,0.176 0.0635,0.32 0.141114,0.32 0.07761,0 0.230112,-0.144 0.338886,-0.32 z m 0.96,0 c 0.108774,-0.176 0.04527,-0.32 -0.141114,-0.32 -0.186387,0 -0.338886,0.144 -0.338886,0.32 0,0.176 0.0635,0.32 0.141114,0.32 0.07761,0 0.230112,-0.144 0.338886,-0.32 z m 0.96,-0.96 C 51.148774,160.144 51.01328,160 50.738886,160 50.464499,160 50.24,160.144 50.24,160.32 c 0,0.176 0.135501,0.32 0.301114,0.32 0.165612,0 0.390112,-0.144 0.498886,-0.32 z m 1.12,-0.96 c 0,-0.176 -0.396,-0.3178 -0.88,-0.3151 -0.685741,0.004 -0.774038,0.0734 -0.4,0.3151 0.62609,0.40461 1.28,0.40461 1.28,0 z m 162.69106,11.91355 c -1.11646,-0.17471 -2.04977,-2.36091 -2.05932,-4.82379 l -0.008,-2.12976 -1.26716,-0.58417 c -1.64528,-0.75847 -2.53855,-2.05115 -2.77046,-4.0092 -0.45793,-3.8665 1.28662,-6.76314 4.82568,-8.01253 3.74368,-1.32163 7.63356,-0.48955 10.51197,2.24862 l 1.27033,1.20844 -0.12324,2.18096 c -0.1287,2.27781 -1.47261,5.58548 -3.01334,7.41654 -0.97406,1.1576 -0.76395,3.97163 0.28686,3.84191 0.20673,-0.0255 0.59187,-0.0261 0.85587,-0.001 0.7126,0.0669 -0.96028,1.29484 -1.776,1.30369 -0.3608,0.004 -0.7928,0.14074 -0.96,0.30405 -0.38324,0.37434 -4.877,1.19682 -5.77294,1.05661 z m 1.72724,-1.37329 c 4.52711,-1.02421 4.67401,-1.11603 3.74616,-2.34141 -0.28122,-0.37139 -0.69593,-0.53819 -1.08507,-0.43643 -0.75849,0.19835 -2.59939,-0.85171 -2.59939,-1.48271 0,-0.27569 -0.43335,-0.50028 -1.12,-0.58044 l -1.12,-0.13076 v 2.14957 c 0,2.00762 0.19441,3.16192 0.53253,3.16192 0.0792,0 0.81983,-0.15288 1.64577,-0.33974 z M 219.2,165.6 c 0.34204,-0.41213 0.22893,-0.48 -0.8,-0.48 -1.02893,0 -1.14204,0.0679 -0.8,0.48 0.2191,0.264 0.5791,0.48 0.8,0.48 0.2209,0 0.5809,-0.216 0.8,-0.48 z m 0.51528,-2.55509 c 0.1954,-0.2667 0.65537,-0.48491 1.02215,-0.48491 1.34848,0 2.27813,-1.2831 2.84485,-3.92644 0.52057,-2.42813 0.51787,-2.50679 -0.11523,-3.35477 -0.92114,-1.23375 -4.03121,-2.69212 -5.74115,-2.69212 -3.9739,0 -6.51275,1.64975 -7.18897,4.67141 -0.72541,3.24148 0.84666,5.75966 3.46801,5.55516 1.02305,-0.0798 1.17992,-0.006 1.08987,0.51539 -0.0976,0.56493 0.0517,0.594 2.08,0.4049 1.38881,-0.12947 2.31467,-0.38044 2.54047,-0.68862 z M 54.72,170.56 c 0,-0.176 0.216,-0.32 0.48,-0.32 0.264,0 0.48,0.144 0.48,0.32 0,0.176 -0.216,0.32 -0.48,0.32 -0.264,0 -0.48,-0.144 -0.48,-0.32 z m -9.430064,-1.26392 c -0.244662,-0.39588 0.518541,-0.75883 1.268275,-0.60314 0.283578,0.0589 0.512464,0.25106 0.50864,0.42706 -0.0097,0.44416 -1.518806,0.59371 -1.776915,0.17608 z m -1.763517,-1.76835 c -0.2524,-0.30412 -0.276678,-0.48773 -0.06449,-0.48773 0.386736,0 0.837629,0.6071 0.615712,0.82902 -0.08054,0.0805 -0.328595,-0.073 -0.551226,-0.34129 z M 45.02,167.47333 c -0.417312,-0.41731 -0.218077,-0.75333 0.446666,-0.75333 0.3724,0 0.610755,0.16773 0.54,0.38 -0.155876,0.46763 -0.690196,0.6698 -0.986666,0.37333 z m 6.9,-0.32914 C 51.028602,166.52238 50.995347,166.08 51.84,166.08 c 0.352,0 0.64,0.144 0.64,0.32 0,0.176 0.216,0.32 0.48,0.32 0.264,0 0.48,0.216 0.48,0.48 0,0.60958 -0.597565,0.58764 -1.52,-0.0558 z m 131.14526,-3.17086 c 0.0154,-0.37278 0.0912,-0.4486 0.19334,-0.19333 0.0924,0.231 0.0811,0.507 -0.0252,0.61333 -0.10634,0.10634 -0.18197,-0.0827 -0.16807,-0.42 z M 105.28,162.24 c 0,-0.176 0.1525,-0.32 0.33889,-0.32 0.18638,0 0.24988,0.144 0.14111,0.32 -0.10877,0.176 -0.26127,0.32 -0.33889,0.32 -0.0776,0 -0.14111,-0.144 -0.14111,-0.32 z m 72.07108,-0.60462 c -1.04877,-0.47847 -1.04889,-0.47882 -0.84257,-2.30251 l 0.20636,-1.82397 -1.28254,-0.21668 c -2.29774,-0.3882 -3.47036,-2.48865 -3.17957,-5.69542 0.0988,-1.08951 0.33523,-2.0328 0.52542,-2.0962 0.19019,-0.0634 0.26974,-0.23834 0.17677,-0.38877 -0.23143,-0.37446 1.72103,-2.55183 2.28824,-2.55183 0.25129,0 0.54143,-0.22028 0.64474,-0.48952 0.10332,-0.26924 0.98624,-1.06124 1.96205,-1.76 1.53988,-1.10268 2.00118,-1.27048 3.49275,-1.27048 3.07054,0 6.11874,1.9855 7.55669,4.92218 1.70416,3.48035 1.12936,6.62501 -1.50376,8.22686 -0.93758,0.57037 -0.99566,0.71853 -0.99566,2.53978 0,2.27591 -0.35374,2.65313 -2.26776,2.41824 -0.78571,-0.0964 -1.55216,0.002 -1.92,0.24693 -0.33673,0.22408 -1.25998,0.4477 -2.05167,0.49692 -0.79169,0.0492 -1.51169,0.11954 -1.6,0.15626 -0.0883,0.0367 -0.63259,-0.14859 -1.20949,-0.41179 z m 4.50978,-2.1092 c 0.49548,-0.25843 1.28748,-0.52165 1.76,-0.58493 0.66336,-0.0888 0.85914,-0.29122 0.85914,-0.88815 0,-0.58561 -0.15521,-0.7543 -0.64,-0.69558 -5.05325,0.61206 -4.96,0.58032 -4.96,1.68858 0,0.86327 0.0988,0.95371 1.04,0.95193 0.572,-9.6e-4 1.44539,-0.21342 1.94086,-0.47185 z m 2.02433,-4.29782 c 0.6174,-0.17048 1.31425,-0.23639 1.54854,-0.14648 0.41878,0.1607 1.23062,-0.37793 2.47471,-1.64188 1.18881,-1.20779 0.0827,-5.31955 -1.83736,-6.82985 -1.47318,-1.1588 -3.7608,-2.09491 -4.92742,-2.01635 -1.42894,0.0962 -4.07733,2.09968 -5.70283,4.31405 -0.96419,1.31349 -1.20329,1.93075 -1.24614,3.21707 -0.0485,1.45548 0.46012,2.85287 1.24392,3.41768 0.39538,0.2849 7.19248,0.032 8.44658,-0.31424 z M 111.2,158.4 c 0.10877,-0.176 0.26127,-0.32 0.33889,-0.32 0.0776,0 0.14111,0.144 0.14111,0.32 0,0.176 -0.1525,0.32 -0.33889,0.32 -0.18638,0 -0.24988,-0.144 -0.14111,-0.32 z m 1.20609,-0.22176 c 0.31135,-0.0811 0.74335,-0.0758 0.96,0.0119 0.21665,0.0876 -0.0381,0.15403 -0.56609,0.14751 -0.528,-0.007 -0.70526,-0.0782 -0.39391,-0.15937 z M 38.685293,156.88 c 0.806793,-1.4678 1.259597,-1.85187 1.686595,-1.43057 0.339069,0.33454 0.240579,0.55192 -0.538458,1.18849 -1.13023,0.92353 -1.574153,1.01713 -1.148137,0.24208 z m 53.499971,-0.26667 c 0.01536,-0.37278 0.09118,-0.4486 0.193331,-0.19333 0.09244,0.231 0.08107,0.507 -0.02525,0.61333 -0.106333,0.10634 -0.181965,-0.0827 -0.16807,-0.42 z M 0.00598565,153.83087 c -0.006765093,-3.53659 0.3911156,-4.59823 3.51913405,-9.38987 0.8847046,-1.35523 1.6924995,-2.83687 1.7951001,-3.29253 0.1026007,-0.45566 0.5316599,-1.71737 0.953465,-2.8038 0.4218048,-1.08643 0.9857184,-2.88643 1.2531414,-4 0.2674228,-1.11357 0.6539876,-2.60067 0.859033,-3.30467 0.2050454,-0.704 0.3908915,-1.352 0.4129914,-1.44 0.057705,-0.22978 0.527239,-3.99126 0.6503158,-5.20975 C 9.5064013,123.82361 9.6532054,120.48 9.7753978,116.96 9.9731632,111.26296 9.9246739,110.1558 9.3339363,106.88 7.6653174,97.627069 7.2868403,93.833549 7.2427699,85.92 L 7.2,78.24 8.4346931,73.460714 c 0.7263312,-2.811504 1.5577642,-5.267479 2.0193569,-5.964992 0.440618,-0.665818 0.907117,-2.007824 1.063944,-3.060714 0.398685,-2.676646 0.763134,-4.390701 2.201727,-10.355008 0.700445,-2.904 1.412213,-6.288 1.581706,-7.52 0.30844,-2.241968 0.80186,-3.229331 3.495416,-6.994522 1.829688,-2.557635 7.360233,-6.855427 11.56119,-8.984211 3.537039,-1.792354 10.284607,-3.549513 12.407698,-3.231136 0.934832,0.140187 1.653939,0.05202 2.299786,-0.281956 0.859513,-0.444473 0.936029,-0.440259 0.897072,0.0494 -0.02586,0.325161 0.459917,0.791891 1.237411,1.188872 1.221731,0.623804 1.352838,0.881507 1.167379,2.294539 -0.03312,0.252352 -1.263197,0.331325 -4.087561,0.262427 -3.816349,-0.0931 -4.184215,-0.04566 -6.64,0.85626 -4.91041,1.803412 -5.58424,2.07584 -6.011539,2.430468 -0.235553,0.195491 -0.54593,0.35216 -0.689726,0.34815 -0.143795,-0.004 -1.007795,0.473933 -1.92,1.062093 L 27.36,36.629763 l 1.12,0.112951 c 0.616,0.06212 2.416,-0.03965 4,-0.226167 1.584,-0.186515 4.032,-0.419821 5.44,-0.518454 3.505747,-0.245591 4.758093,-0.471603 5.028304,-0.907463 0.151395,-0.244208 0.538355,-0.0013 1.134442,0.711975 0.713596,0.853952 1.05384,1.035257 1.61096,0.858435 C 46.08217,36.537747 46.4,36.236186 46.4,35.990902 46.4,35.397971 45.132614,34.24 44.483661,34.24 c -0.283613,0 -0.675213,-0.159552 -0.870224,-0.354563 -0.370554,-0.370554 -2.715591,-0.259843 -3.693437,0.174368 -0.331712,0.147299 -0.56,0.114377 -0.56,-0.08075 0,-0.44401 1.785318,-1.005843 3.396896,-1.068992 1.639149,-0.06423 4.168918,1.106054 4.474896,2.070105 0.121734,0.383559 0.434237,0.85305 0.694442,1.043319 0.389862,0.285075 0.27463,0.440128 -0.654925,0.881229 -1.275341,0.60519 -2.968387,0.705427 -3.284192,0.194441 -0.140727,-0.227702 -0.386,-0.18271 -0.738887,0.135536 -0.726806,0.655469 -5.202531,1.691674 -9.80823,2.270765 -3.813528,0.479491 -6.714161,0.444429 -7.769474,-0.09392 -0.902956,-0.460624 -2.546642,-0.167261 -3.562889,0.635901 -0.523724,0.41391 -0.960194,0.846064 -0.969932,0.960342 -0.02881,0.338106 2.497336,0.445511 5.747159,0.244352 1.669325,-0.103325 4.619136,-0.136013 6.555136,-0.07264 1.936,0.06338 3.808,0.113194 4.16,0.110708 0.352,-0.0026 0.928,0.118931 1.28,0.26982 1.391146,0.59633 5.541344,1.179847 6.445491,0.906237 1.266826,-0.383366 5.941891,-2.675913 7.22001,-3.540531 1.820749,-1.231696 1.817795,-1.230976 1.731536,-0.421933 -0.08635,0.809968 -2.521946,3.344749 -4.357037,4.53448 -0.616,0.399367 -1.459421,1.025399 -1.874269,1.391178 -0.414848,0.365782 -1.566848,0.918585 -2.56,1.228454 C 43.09105,46.405062 35.312698,46.415008 31.2,45.676179 29.616,45.391616 26.320187,45.065626 23.875971,44.95175 18.81573,44.716 18.895442,44.680131 18.879987,47.2 c -0.01076,1.754912 -1.1215,6.584278 -1.579456,6.867312 -0.61331,0.379046 -2.501716,9.612918 -1.965852,9.612566 0.101927,-6.7e-5 0.156908,1.703354 0.12218,3.785383 -0.0499,2.991945 -0.204935,4.145238 -0.739537,5.501533 -0.63486,1.610652 -1.90486,3.193206 -2.56255,3.193206 -0.16074,0 -0.441168,0.278246 -0.623174,0.61833 -0.182005,0.34008 -0.598201,0.703158 -0.924878,0.806841 -0.48835,0.154995 -0.576537,0.457565 -0.495973,1.701674 0.44598,6.887043 0.51031,7.680816 0.938327,11.578137 0.182021,1.657396 0.806233,3.535018 1.17521,3.535018 0.140644,0 0.255716,0.223638 0.255716,0.496976 0,0.273338 0.36,1.026765 0.8,1.674285 0.44,0.647517 0.8,1.359305 0.8,1.581747 0,0.222445 0.298233,1.266211 0.662739,2.319482 0.364506,1.05327 0.571269,2.06304 0.459472,2.24393 -0.111798,0.1809 0.02636,1.45473 0.307013,2.83075 0.389106,1.90774 0.480181,3.82585 0.383525,8.07734 -0.146065,6.42477 -0.768822,10.33144 -2.077619,13.03329 -0.936894,1.93411 -1.664056,3.99366 -2.281601,6.4622 -0.198132,0.792 -0.498368,1.728 -0.667192,2.08 -0.312201,0.65094 -2.5133722,6.77249 -2.6478538,7.3638 -0.1408848,0.61945 -1.3479245,2.17935 -2.8584832,3.69411 -0.836,0.83832 -1.52,1.69047 -1.52,1.89366 0,0.20319 -0.36,1.15648 -0.8,2.11842 -0.44,0.96194 -0.8,1.87137 -0.8,2.02097 0,0.14959 -0.5013065,1.26132 -1.1140143,2.47052 L 0.0119713,156.96 Z M 74.010189,156.08 c -0.270391,-0.35096 -0.494717,-1.4469 -1.219258,-5.95666 -0.243168,-1.51356 -0.968393,-3.14156 -1.884441,-4.23022 -0.430247,-0.51132 -0.882839,-1.24655 -1.005764,-1.63385 -0.395529,-1.2462 -2.101984,-3.77927 -2.545984,-3.77927 -1.968604,0 -4.611216,-4.08645 -5.276883,-8.16 -0.201325,-1.232 -0.628377,-2.816 -0.949008,-3.52 -1.422032,-3.12233 -2.037027,-6.14078 -1.878787,-9.22122 0.06046,-1.17706 0.03437,-2.13982 -0.05799,-2.13945 -0.09235,3.2e-4 -0.169264,-2.55533 -0.170906,-5.67933 -0.0016,-3.124 -0.100601,-6.256 -0.219907,-6.96 -0.119309,-0.704 -0.313606,-2.30123 -0.43177,-3.54939 -0.178198,-1.882245 -0.130832,-2.301624 0.277655,-2.458373 0.270877,-0.103946 0.594105,-0.666723 0.718291,-1.250615 C 59.489622,96.957731 59.765616,96.264 59.978755,96 c 0.213139,-0.264 0.572109,-1.128 0.797709,-1.92 0.225603,-0.792 0.53919,-1.770774 0.696861,-2.175056 0.15767,-0.404282 0.286675,-1.150909 0.286675,-1.659168 0,-0.508262 0.146397,-1.309165 0.325325,-1.779786 0.477273,-1.255321 0.515385,-4.719088 0.05362,-4.873008 C 61.930525,83.523507 61.76,83.272371 61.76,83.034896 c 0,-0.237472 -0.288778,-0.523421 -0.641728,-0.635443 -0.352947,-0.112023 -1.036947,-0.52625 -1.52,-0.920506 -0.48305,-0.394256 -1.228653,-0.737344 -1.656893,-0.762416 -0.42824,-0.02509 -0.903072,-0.267968 -1.055177,-0.539769 -0.35834,-0.640317 -4.406749,-0.629268 -5.96528,0.01629 -0.593495,0.245827 -1.397495,0.446956 -1.786669,0.446956 -0.389171,0 -0.807754,0.100167 -0.930183,0.222596 -0.122425,0.122428 -0.398425,0.255552 -0.613331,0.295827 -0.214905,0.04028 -0.861325,0.174627 -1.436486,0.298557 -0.883197,0.190294 -1.014807,0.144688 -0.846688,-0.293421 0.181385,-0.472682 0.09757,-0.476336 -0.943975,-0.04115 -1.337171,0.558707 -2.556729,0.610816 -3.424627,0.146333 C 39.892522,80.70871 40.244109,80.428534 42,80.423219 c 2.118832,-0.0064 9.511866,-1.981075 10.70369,-2.858928 0.492969,-0.363104 1.52624,-0.760182 2.296153,-0.88239 1.469511,-0.233258 3.75897,-1.171843 5.142099,-2.108051 C 60.591875,74.269302 61.608,73.605232 62.4,73.098138 c 6.257738,-4.006644 10.360778,-8.314356 11.716259,-12.300695 0.328669,-0.966589 1.145975,-2.587853 1.816231,-3.602803 0.670256,-1.014954 1.117392,-2.009203 0.993635,-2.209443 -0.129488,-0.209517 -0.08356,-0.276656 0.108173,-0.158157 0.454233,0.280733 1.16006,-0.627453 0.937798,-1.206662 -0.10695,-0.278708 -0.02442,-0.412954 0.204202,-0.332138 0.211036,0.0746 1.058969,-0.904733 1.884294,-2.176298 2.599754,-4.005392 5.553526,-7.259654 8.991312,-9.906003 4.63191,-3.565571 6.021315,-4.817805 5.847658,-5.270345 -0.08339,-0.2173 0.0084,-0.493952 0.203856,-0.614781 0.215251,-0.133034 0.265401,-0.07396 0.127139,0.14975 -0.125581,0.203194 -0.108787,0.369443 0.03732,0.369443 0.521328,0 4.550211,-4.172104 7.163703,-7.418365 1.46194,-1.815906 2.74384,-3.373641 2.84867,-3.461641 0.10482,-0.088 0.53002,-0.664 0.94488,-1.28 0.41487,-0.616 1.28667,-1.696 1.93735,-2.4 1.48499,-1.606686 3.51752,-4.320217 3.51752,-4.69606 0,-0.156214 -0.252,-0.372902 -0.56,-0.481528 -0.82221,-0.289979 -2.0228,-1.736423 -2.2074,-2.65943 -0.16056,-0.802794 -0.16099,-0.802649 -1.61505,0.551435 -0.79994,0.744942 -2.51537,1.968947 -3.81207,2.720011 -1.2967,0.751065 -2.36398,1.581572 -2.37173,1.845572 -0.008,0.264 -0.18953,0.703698 -0.40393,0.977105 -0.46728,0.595879 -3.0733,2.334343 -3.749818,2.501485 -0.264,0.06522 -1.128,0.292877 -1.92,0.505895 -1.746509,0.469743 -5.73992,0.307419 -8.8,-0.357703 -1.232,-0.267781 -2.888,-0.547596 -3.68,-0.621811 C 79.641756,21.291514 77.096268,20.767182 75.60788,20.132942 74.100655,19.490673 72.226501,17.72759 72.422136,17.136 c 0.148618,-0.449407 1.679808,-0.368942 2.267962,0.119182 0.280448,0.23275 0.509904,0.348715 0.509904,0.2577 0,-0.09102 0.54,-0.0334 1.2,0.128039 0.66,0.161437 2.352,0.363819 3.76,0.449738 1.408,0.08592 3.136,0.2197 3.84,0.29729 6.785814,0.74789 7.417443,0.658175 12.412925,-1.763117 1.796889,-0.870947 3.453993,-1.583831 3.682443,-1.584186 0.86685,-0.0013 8.06463,-5.1895426 8.06463,-5.8130233 0,-0.5431449 -1.51376,-1.5968416 -2.8727,-1.9996313 -1.55451,-0.4607562 -1.94905,-0.401738 -1.34597,0.201342 0.55526,0.5552576 0.47553,1.3163098 -0.11418,1.0900135 -0.33562,-0.1287869 -0.46323,-0.022685 -0.4,0.3325657 0.14458,0.812336 -0.51745,0.8346039 -0.87075,0.029286 C 102.27224,8.2334848 102.01176,8.1588707 100,8.1489315 c -1.232,-0.00609 -2.888,0.093543 -3.68,0.2213997 -0.792,0.1278566 -1.944,0.3001968 -2.56,0.3829779 -3.724064,0.5004583 -6.047712,0.900424 -6.96279,1.1984941 -0.573533,0.1868178 -1.221533,0.2777218 -1.44,0.2020078 -0.656756,-0.2276126 6.680576,-1.789236 10.92774,-2.325779 2.437533,-0.3079325 4.44073,-0.7436147 5.2,-1.1309658 1.04221,-0.5316905 1.23505,-0.5541084 1.23505,-0.1435699 0,0.267577 0.144,0.4865037 0.32,0.4865037 0.176,0 0.284,-0.18 0.24,-0.4 -0.15829,-0.7914448 2.38664,-0.6405827 4.34898,0.2578051 1.52509,0.698209 2.13452,1.2367629 3.45693,3.0549175 0.88299,1.2140024 1.71541,2.2072774 1.84981,2.2072774 0.13441,0 0.98583,0.710897 1.89205,1.579771 1.7255,1.654391 1.85452,2.27922 0.64978,3.146832 -0.31053,0.223632 -1.36048,1.56199 -2.33323,2.974129 -1.53527,2.228755 -1.78625,2.80844 -1.90213,4.393397 -0.36038,4.92901 -4.37856,10.674933 -10.84441,15.507289 -3.635982,2.717404 -8.954638,7.12838 -11.863146,9.838582 -2.380845,2.218518 -5.534551,6.721046 -6.618013,9.448506 -2.412141,6.072211 -7.511626,11.347676 -16.031613,16.584857 -1.339245,0.823226 -2.68831,1.776691 -2.997926,2.118813 -0.853444,0.943043 -0.392074,2.026147 1.416569,3.325526 2.454669,1.763504 2.667155,2.260071 2.944963,6.882112 0.196381,3.267239 0.364202,5.69042 0.578775,8.356916 0.0069,0.0862 0.378438,-0.237799 0.825561,-0.72 0.447124,-0.482202 0.95962,-0.87673 1.138887,-0.87673 0.179264,0 0.236937,-0.144 0.128163,-0.32 -0.108774,-0.176 -0.04659,-0.32 0.138173,-0.32 0.184768,0 0.661267,-0.503376 1.058886,-1.118614 0.397616,-0.615239 0.971306,-1.199789 1.274864,-1.299002 0.303559,-0.09921 1.016906,-0.673354 1.585213,-1.275869 1.430691,-1.516806 2.867139,-2.119184 5.745405,-2.409344 2.947817,-0.297171 4.315933,-0.987472 8.040269,-4.056819 3.87664,-3.194867 12.046032,-11.557357 15.18207,-15.540925 1.50892,-1.916713 3.52747,-4.791565 4.48566,-6.388557 0.9582,-1.596992 2.28015,-3.706252 2.93768,-4.687244 1.62504,-2.424484 3.14193,-5.207002 6.26862,-11.498896 2.70948,-5.452356 3.45945,-7.518519 3.8493,-10.60473 0.12228,-0.968 0.43101,-2.587088 0.68607,-3.597974 0.7568,-2.9994 0.79889,-3.211784 0.97174,-4.903932 0.13296,-1.301676 -0.0689,-2.344162 -1.02252,-5.28 C 119.4746,16.347953 119.05988,13.617582 118.82813,6.32 L 118.62743,0 120.51372,1.548489e-4 122.4,3.096978e-4 122.47588,2.3201548 c 0.0417,1.275915 0.1669,2.9678452 0.27815,3.7598452 0.11125,0.792 0.24188,1.8 0.29029,2.24 0.28732,2.611492 1.98426,9.873286 2.43992,10.441258 0.45806,0.570969 0.697,5.232847 0.36101,7.04386 -0.24547,1.323171 -0.19109,2.01203 0.27791,3.52 0.32072,1.031185 0.50544,2.162882 0.4105,2.514882 -0.0949,0.352 -0.58212,2.008 -1.08261,3.68 -0.50049,1.672 -1.15183,3.904 -1.44741,4.96 -0.29558,1.056 -0.72574,2.424 -0.95592,3.04 -0.23019,0.616 -0.41643,1.192 -0.41388,1.28 0.0103,0.353949 -1.50112,3.367293 -1.73876,3.466666 -0.14029,0.05867 -0.25508,0.263328 -0.25508,0.454803 0,0.191475 -0.19843,0.575475 -0.44094,0.853334 -0.24253,0.277859 -0.98492,1.513197 -1.64977,2.745197 -1.81518,3.363613 -1.75287,3.25496 -4.12911,7.2 -1.21912,2.024 -2.31284,3.752 -2.43048,3.84 -0.11764,0.088 -0.39237,0.498682 -0.61051,0.912624 -0.21815,0.413946 -1.88232,2.717946 -3.69816,5.12 -3.19219,4.222739 -6.18883,7.407478 -8.491984,9.025021 -1.400121,0.983331 -6.196899,4.931347 -7.64542,6.292608 -0.603005,0.566678 -1.539005,1.254678 -2.08,1.528883 -1.340925,0.679654 -2.108528,1.174742 -2.88616,1.861501 -0.361607,0.31935 -1.408442,1.011046 -2.326304,1.537101 -1.445952,0.828716 -2.087034,0.979366 -4.8,1.127968 -1.722138,0.09433 -3.597664,0.168972 -4.167831,0.165881 -0.807849,-0.0044 -1.403558,0.342464 -2.698851,1.571392 C 71.670278,93.370342 70.804781,94.08 70.661149,94.08 70.517517,94.08 70.4,94.199094 70.4,94.344653 c 0,0.145561 -0.77417,1.273712 -1.720378,2.507005 -2.476307,3.227632 -2.472604,3.217062 -2.2467,6.412992 0.109452,1.54844 0.2492,2.90051 0.310553,3.00459 0.06135,0.10408 0.133155,2.73208 0.159568,5.84 0.0264,3.10792 0.160906,5.65076 0.298877,5.65076 0.22665,0 0.386029,0.74921 0.782848,3.68 0.354109,2.61533 0.468003,7.81906 0.175098,8.00008 -0.175927,0.10873 -0.319866,0.54919 -0.319866,0.97881 0,0.42961 -0.141258,0.78111 -0.313904,0.78111 -0.64711,0 -0.703853,1.71489 -0.146026,4.41325 0.440759,2.13207 0.817757,3.08746 1.604743,4.06675 1.050099,1.3067 1.934032,2.70715 2.878169,4.56 0.291466,0.572 0.661098,1.04 0.821399,1.04 0.317629,0 0.822925,1.15785 1.048729,2.40308 0.07843,0.4325 0.220714,0.91276 0.316192,1.06725 0.164394,0.26599 0.360167,1.35475 0.699418,3.88967 0.08244,0.616 0.299942,1.58518 0.483338,2.15374 0.183395,0.56856 0.24271,1.18056 0.131808,1.36 -0.276893,0.44803 -0.981248,0.40966 -1.353677,-0.0737 z M 129.6,154.11424 c 0,-0.54258 0.86541,-0.92617 1.12864,-0.50027 0.10402,0.16832 0.10013,0.45003 -0.009,0.62603 -0.2957,0.47844 -1.12,0.38588 -1.12,-0.12576 z m 1.91955,0.2292 c 2.5e-4,-0.0311 0.45402,-0.28284 1.0084,-0.5594 0.75523,-0.37676 1.11626,-0.41292 1.44,-0.14425 0.32061,0.26609 0.55224,0.25882 0.89803,-0.0282 0.25629,-0.2127 0.61629,-0.29383 0.8,-0.18029 0.18371,0.11354 0.33402,0.0406 0.33402,-0.16207 0,-0.24689 0.5858,-0.33233 1.77501,-0.25889 l 1.77501,0.10962 -0.20412,-1.28 c -0.11226,-0.704 -0.42144,-1.45042 -0.68705,-1.65871 -0.63804,-0.50033 -0.25745,-1.06129 0.72004,-1.06129 0.50438,0 0.78111,-0.18234 0.78111,-0.51469 0,-0.38613 0.19544,-0.46564 0.78243,-0.31831 0.62971,0.15804 0.942,-0.0128 1.6,-0.87552 0.8606,-1.12831 0.96564,-1.97256 0.61185,-4.91772 -0.1791,-1.49084 -0.33591,-1.76032 -1.48968,-2.56 -1.20736,-0.83683 -1.49917,-0.89376 -4.58061,-0.89376 -1.81011,0 -3.17361,-0.11769 -3.03002,-0.26153 0.1436,-0.14384 1.48634,-0.27057 2.98387,-0.28163 2.26857,-0.0167 3.02101,0.11644 4.51056,0.79838 1.40977,0.64541 1.82978,1.00943 1.98642,1.72162 0.10925,0.49674 0.27736,1.11916 0.37358,1.38316 0.4041,1.10868 0.19052,3.84344 -0.38337,4.9091 -0.59947,1.11316 -2.21183,2.1309 -3.37589,2.1309 -0.7369,0 -0.75545,0.15857 -0.24277,2.07541 0.27598,1.03185 0.55026,1.44459 0.96,1.44459 0.64775,0 0.78846,0.906 0.17363,1.11803 -0.3784,0.13049 -9.52142,0.38537 -9.52045,0.26541 z m -39.044449,-2.56455 c -0.0026,-1.19839 -0.124922,-2.36816 -0.271613,-2.59949 -0.146694,-0.23132 -0.945888,-0.45893 -1.775987,-0.50579 -2.454042,-0.13853 -3.504227,-1.66183 -3.427914,-4.9722 0.113472,-4.92211 2.539757,-7.41801 7.758842,-7.98149 2.520006,-0.27207 3.94343,0.22 5.801571,2.00556 0.97414,0.93609 1.2,1.38216 1.2,2.37002 0,1.23479 -0.60189,2.93745 -1.04,2.942 -0.132,0.001 -0.24,0.23799 -0.24,0.52581 0,0.28781 -0.324,0.8297 -0.72,1.2042 -0.816643,0.77229 -1.062394,1.64199 -0.552947,1.95685 0.237795,0.14696 0.215715,0.371 -0.07151,0.72556 -0.228547,0.28211 -0.258438,0.41895 -0.06643,0.30407 0.444157,-0.26572 1.730887,1.4506 1.730887,2.30876 0,0.43886 -0.36225,0.80002 -1.119997,1.11663 -0.616,0.25738 -1.12,0.61931 -1.12,0.80429 0,0.18498 -0.193875,0.33633 -0.430835,0.33633 -0.23696,0 -0.907763,0.23792 -1.490672,0.52872 -0.582909,0.29079 -1.586259,0.55374 -2.229667,0.58434 -0.643408,0.0306 -1.340605,0.16117 -1.549328,0.29017 -0.278308,0.172 -0.380804,-0.34644 -0.384397,-1.94434 z m 4.156643,-1.09203 c 1.657466,-0.86392 1.81999,-1.16203 1.033171,-1.89506 -0.353734,-0.32956 -0.741606,-1.18195 -0.861942,-1.89421 -0.188349,-1.11483 -0.09246,-1.46234 0.689117,-2.49756 1.087123,-1.43993 1.53927,-2.14649 2.239209,-3.49918 0.525581,-1.01573 0.523801,-1.02218 -0.529165,-1.92 -1.588246,-1.35423 -1.827667,-1.44485 -3.817193,-1.44485 -4.331991,0 -6.654131,2.29778 -6.501856,6.43365 0.09622,2.61339 0.498358,3.07035 2.701981,3.07035 h 1.641456 l 0.647366,2.16 c 0.360909,1.20421 0.828576,2.16 1.056883,2.16 0.225239,0 0.990675,-0.30292 1.700973,-0.67314 z M 130.15466,151.12 c -0.18677,-1.04864 -0.38415,-1.36 -0.86216,-1.36 -0.6834,0 -1.95444,-1.54475 -2.50135,-3.04 -0.56801,-1.55294 -0.77063,-2.96547 -0.4535,-3.16147 0.16231,-0.10031 0.37703,0.5093 0.47716,1.35469 0.30202,2.55008 1.77139,4.52678 3.36497,4.52678 0.34202,0 0.80112,0.216 1.02022,0.48 0.32513,0.39176 0.30665,0.48 -0.10054,0.48 -0.32865,0 -0.53366,0.35492 -0.60074,1.04 -0.0988,1.00928 -0.10899,0.99983 -0.34406,-0.32 z m 3.22534,-1.2586 c 0.231,-0.0924 0.507,-0.0811 0.61333,0.0252 0.10634,0.10634 -0.0827,0.18197 -0.42,0.16807 -0.37278,-0.0154 -0.4486,-0.0912 -0.19333,-0.19333 z m 1.66,-0.36807 c 0,-0.47881 0.41343,-0.69408 0.77056,-0.40121 0.19219,0.1576 0.70944,0.35274 1.14944,0.43364 0.52126,0.0958 0.32615,0.16227 -0.56,0.19066 -0.748,0.024 -1.36,-0.0764 -1.36,-0.22309 z M 137.6,147.84 c -0.58495,-0.37802 -0.0797,-0.37802 0.8,0 0.422,0.18134 0.4765,0.28101 0.16,0.29261 -0.264,0.01 -0.696,-0.122 -0.96,-0.29261 z m -7.68785,-7.54628 c 0.78769,-0.45022 1.86769,-0.88989 2.4,-0.97705 0.56785,-0.093 0.0459,0.24692 -1.26292,0.82243 -2.71266,1.19279 -3.02861,1.23576 -1.13708,0.15462 z m 112.29248,-1.22425 c -0.0685,-0.0622 -2.57263,-0.20708 -5.56463,-0.32191 -6.72029,-0.25791 -9.54587,-0.47916 -11.2,-0.87701 -0.704,-0.16932 -2.50139,-0.53172 -3.99419,-0.80533 -1.4928,-0.27361 -3.06487,-0.6308 -3.49348,-0.79376 -0.75094,-0.28551 -0.75697,-0.31155 -0.16581,-0.71594 0.33741,-0.23081 1.18948,-0.52729 1.89348,-0.65884 1.10213,-0.20595 36.56258,-0.35172 44.32,-0.18218 1.61635,0.0353 3.69381,-0.16052 5.12,-0.48266 1.32,-0.29815 2.976,-0.67231 3.68,-0.83145 0.704,-0.15914 1.856,-0.36664 2.56,-0.46111 1.1737,-0.15749 6.32851,-1.74117 9.71866,-2.98579 0.76926,-0.28242 2.06526,-1.09737 2.88,-1.81102 0.81474,-0.71363 2.34534,-1.95943 3.40134,-2.76843 1.056,-0.809 2.23798,-1.77312 2.62662,-2.14248 0.38864,-0.36936 0.83901,-0.67156 1.00082,-0.67156 0.1618,0 0.47912,-0.22282 0.70513,-0.49515 0.29902,-0.3603 0.47402,-0.39307 0.64258,-0.12033 0.25161,0.4071 -0.51071,1.42596 -2.23206,2.98317 -0.60329,0.54577 -1.3394,1.22442 -1.63579,1.50811 -0.29639,0.28368 -0.98182,0.77744 -1.52316,1.09721 -0.54135,0.31979 -1.50441,1.20368 -2.14013,1.96421 -0.63573,0.76053 -1.3647,1.38278 -1.61994,1.38278 -0.25524,0 -0.46407,0.12169 -0.46407,0.27043 0,0.14874 -0.972,0.57554 -2.16,0.94846 -1.188,0.37291 -3.24,1.05293 -4.56,1.51115 -3.15806,1.09628 -5.53413,1.72956 -5.82193,1.55168 -0.12762,-0.0789 -0.48989,-0.006 -0.80505,0.16122 -0.31516,0.16754 -1.72502,0.54094 -3.13302,0.82977 -1.408,0.28883 -3.136,0.66181 -3.84,0.82885 -1.29297,0.30677 -2.64997,0.50946 -5.28,0.78863 -0.792,0.0841 -2.232,0.2518 -3.2,0.37275 -0.968,0.12094 -2.048,0.25449 -2.4,0.29676 -0.352,0.0423 -3.36014,0.16258 -6.68475,0.26735 -3.32461,0.10477 -6.14852,0.25463 -6.27537,0.33302 -0.12683,0.0784 -0.2867,0.0916 -0.35525,0.0294 z M 194.4,129.2223 c -3.35394,-0.28083 -5.33868,-0.6053 -11.68,-1.90942 -7.69116,-1.58172 -12.01224,-2.29274 -18.24,-3.00132 -0.792,-0.0901 -2.016,-0.24052 -2.72,-0.33424 -3.61613,-0.4814 -4.57643,-0.53981 -15.36,-0.93423 -5.89182,-0.2155 -7.34185,-0.37451 -8.88648,-0.97447 -0.66356,-0.25774 -1.49756,-0.46862 -1.85334,-0.46862 -0.35578,0 -1.57086,-0.432 -2.70018,-0.96 -1.12932,-0.528 -2.20527,-0.96 -2.391,-0.96 -0.18573,0 -0.58773,-0.1245 -0.89334,-0.27666 -0.71421,-0.35559 -5.77591,-1.89552 -11.27566,-3.43041 -1.144,-0.31927 -3.016,-1.05508 -4.16,-1.63514 -1.144,-0.58007 -2.27424,-1.05537 -2.51164,-1.05623 -0.51994,-0.002 -2.57931,-0.91966 -3.24836,-1.44767 -0.264,-0.20834 -1.128,-0.72286 -1.92,-1.14337 -2.45624,-1.30414 -3.58114,-2.26215 -3.41268,-2.90636 0.0842,-0.32177 0.0287,-0.50826 -0.12311,-0.4144 -0.85144,0.52622 -1.83286,-3.47077 -1.13104,-4.60635 0.43181,-0.69869 0.82683,-0.3545 0.82683,0.72043 0,1.70481 1.73414,4.0133 3.84,5.11181 3.62558,1.89128 5.30722,2.674 6.2289,2.89924 0.52189,0.12754 1.56543,0.51275 2.31897,0.85603 2.28726,1.04197 3.09623,1.34384 3.93213,1.46733 0.44,0.065 1.93811,0.51049 3.32914,0.98997 1.8757,0.64654 2.56467,0.76843 2.66666,0.47178 0.18915,-0.55014 1.3071,-0.50282 1.88992,0.08 0.264,0.264 0.85305,0.48 1.30901,0.48 1.03338,0 3.67223,0.76119 6.80527,1.963 2.06934,0.79379 6.15368,1.76214 7.68,1.82085 0.264,0.0101 1.704,0.0916 3.2,0.18107 1.496,0.0894 5.37756,0.25168 8.62568,0.36056 3.24813,0.10886 6.02791,0.27348 6.1773,0.36581 0.14939,0.0923 3.03584,0.44038 6.41432,0.77346 9.27651,0.91455 15.97349,2.12454 21.9827,3.97177 0.968,0.29757 3.3951,0.97384 5.39356,1.50284 3.17713,0.841 6.05825,2.03549 5.72161,2.37213 -0.26001,0.26002 -3.15587,0.29516 -5.83517,0.0708 z m 66.14299,-2.27525 c -0.38665,-0.41157 -0.70299,-0.92408 -0.70299,-1.13893 0,-0.29519 -0.16097,-0.30449 -0.65877,-0.0381 -0.71231,0.38122 -2.54123,0.12539 -2.54123,-0.35547 0,-0.16201 -0.2263,-0.29457 -0.5029,-0.29457 -0.32547,0 -0.48233,0.25402 -0.44458,0.72 0.0875,1.0799 0.014,1.52054 -0.25252,1.5151 -0.58043,-0.0118 -1.0754,-0.59661 -1.23091,-1.4542 -0.0925,-0.51 -0.33936,-1.0328 -0.54862,-1.16179 -3.13753,-1.93395 -5.35495,-4.79147 -5.32913,-6.86747 0.022,-1.77243 1.38709,-3.2346 3.79386,-4.0638 1.93658,-0.6672 8.4532,-0.51278 9.88855,0.23433 2.07406,1.07957 2.19961,4.06218 0.33181,7.88337 -0.973,1.99062 -1.09368,2.4857 -0.8846,3.62906 0.33369,1.82485 -0.0149,2.35368 -0.91797,1.39245 z m -1.73419,-2.64519 c 0.71289,-0.49933 0.99194,-1.74186 0.3912,-1.74186 -0.176,0 -0.32,0.216 -0.32,0.48 0,0.264 -0.10936,0.48 -0.24302,0.48 -0.13367,0 -0.42289,0.288 -0.64272,0.64 -0.47892,0.76688 -0.15768,0.82283 0.81454,0.14186 z m -1.71724,-1.76641 c 0.45564,-0.5415 0.82844,-1.11244 0.82844,-1.26874 0,-0.15631 0.30631,-0.44813 0.68069,-0.64849 0.52431,-0.28059 0.73883,-0.27025 0.93369,0.0451 0.13914,0.22514 0.53844,0.4529 0.88732,0.50614 0.47904,0.0731 0.75854,-0.21363 1.14174,-1.17134 1.42125,-3.55206 0.83998,-5.08043 -1.96344,-5.16264 -4.40199,-0.12909 -7.25644,0.24172 -8.31336,1.07995 -0.84003,0.66621 -1.26158,1.99917 -0.94179,2.97796 0.32672,1 1.81351,2.88044 2.87627,3.63778 0.58861,0.41946 0.62221,0.39448 0.47875,-0.35599 -0.20616,-1.07846 0.64152,-1.64339 1.51144,-1.00729 0.425,0.31077 0.58837,0.75138 0.52006,1.40263 -0.12758,1.21627 0.31692,1.20483 1.36019,-0.035 z M 237.76498,122.406 c -0.25716,-0.30986 -0.33638,-0.92918 -0.2159,-1.68773 0.10467,-0.65905 0.27791,-1.92214 0.38496,-2.80686 l 0.19465,-1.60859 -1.97638,-0.43846 c -2.60484,-0.57788 -2.69823,-0.42797 -2.63728,4.23365 0.0182,1.39556 -0.0436,1.52892 -0.66746,1.44 -0.63053,-0.0899 -0.68617,-0.28384 -0.67064,-2.33801 0.009,-1.232 0.12776,-2.78981 0.26321,-3.4618 0.21444,-1.06388 0.1427,-1.31779 -0.55502,-1.96441 -1.39652,-1.29425 -1.92443,-4.22909 -1.3307,-7.39787 0.54666,-2.91761 1.46064,-4.18057 3.45368,-4.77244 1.9277,-0.57247 3.26698,-0.39952 5.47403,0.70689 1.67163,0.838 1.726,0.87446 3.33428,2.23557 1.46306,1.23822 1.72252,3.56743 0.70559,6.33406 -0.38816,1.056 -0.81151,2.4351 -0.94078,3.06466 -0.3172,1.54477 -0.53191,1.83272 -1.74422,2.33926 -0.97216,0.40619 -1.08711,0.62793 -1.78084,3.43515 -0.40789,1.65051 -0.77387,3.04041 -0.81329,3.08866 -0.0394,0.0483 -0.25447,-0.13252 -0.47789,-0.40173 z m 3.40024,-9.846 c 0.92371,-1.82653 1.20372,-2.79646 1.31646,-4.56 l 0.1432,-2.24 -1.77798,-1.16112 c -0.9779,-0.63862 -1.71249,-1.22662 -1.63245,-1.30667 0.0801,-0.08 -0.0344,-0.16629 -0.25445,-0.19164 -0.22,-0.0253 -1.13215,-0.13738 -2.02701,-0.24895 -2.12927,-0.26549 -4.19266,0.75146 -4.40797,2.17247 -0.0347,0.22875 -0.18494,0.61123 -0.33395,0.84996 -0.48127,0.77103 -0.27062,5.13212 0.27421,5.67695 0.2694,0.26939 0.6362,0.39933 0.81513,0.28875 0.17892,-0.11059 0.60682,-0.11171 0.95088,-0.003 0.49058,0.1557 0.58658,0.39344 0.4449,1.10184 -0.2195,1.09746 0.15747,1.37593 1.96455,1.45121 1.12288,0.0468 1.32597,-0.0344 1.20866,-0.48296 -0.092,-0.3519 0.0989,-0.60193 0.54963,-0.7198 0.55069,-0.144 0.75677,0.009 1.0171,0.75594 0.17956,0.51509 0.38258,0.93653 0.45115,0.93653 0.0686,0 0.65264,-1.044 1.29794,-2.32 z M 153.76,111.4629 c -2.64,-0.23361 -5.32066,-0.42228 -5.95703,-0.41926 -0.63636,0.003 -1.33,-0.20292 -1.54141,-0.45766 -0.31169,-0.37556 -0.22904,-0.56496 0.43703,-1.00138 0.77237,-0.50607 0.82141,-0.69634 0.82141,-3.18671 0,-2.52793 -0.0349,-2.65728 -0.76712,-2.84105 -1.34564,-0.33773 -2.59658,-3.17925 -3.29474,-7.484021 C 143.279,94.968234 143.86155,93.12 144.38885,93.12 c 0.1863,0 0.23007,0.610061 0.10905,1.52 -0.42694,3.210211 2.11612,9.05068 3.71929,8.54185 0.59619,-0.18923 1.54281,0.49508 1.54281,1.11529 0,0.18858 -0.27166,0.34286 -0.60368,0.34286 -0.69053,0 -0.90183,0.90372 -0.86166,3.68527 0.0139,0.96517 -0.11866,1.76395 -0.29466,1.77507 -0.176,0.0111 -0.032,0.13625 0.32,0.27805 0.91172,0.36729 2.72,0.0384 2.72,-0.49471 0,-0.49476 0.82118,-0.60717 1.10311,-0.15101 0.0995,0.16097 -2e-5,0.3656 -0.22112,0.45473 -0.22109,0.0891 0.42601,0.17344 1.43801,0.18734 1.43345,0.0197 1.84,-0.0808 1.84,-0.45474 0,-0.53375 0.62986,-0.57532 2.94298,-0.19424 l 1.50298,0.24761 -0.19637,-2.10293 c -0.10801,-1.15662 -0.38128,-2.28784 -0.60728,-2.51384 -0.24076,-0.24077 -1.24549,-0.42178 -2.4266,-0.43719 -1.10864,-0.0145 -2.11012,-0.0833 -2.2255,-0.15306 -0.11539,-0.0697 -0.0434,-0.48556 0.16,-0.92407 0.4071,-0.87772 1.16979,-1.08387 1.16979,-0.31618 0,0.35938 0.20963,0.43348 0.80416,0.28426 0.44228,-0.111 0.99253,-0.0455 1.22278,0.1456 0.25254,0.20959 1.05564,0.272 2.02412,0.15729 1.48005,-0.17529 1.59412,-0.24965 1.45991,-0.9517 -0.16424,-0.85918 0.2902,-1.0031 0.88903,-0.28155 0.62827,0.75702 1.14807,0.57587 2.33864,-0.81505 0.90182,-1.05356 1.16437,-1.69499 1.40808,-3.439996 0.64997,-4.653872 -0.0832,-7.477888 -2.22972,-8.587876 -3.75734,-1.942998 -7.82485,-2.252252 -11.76824,-0.894748 -1.31382,0.452278 -2.71276,0.901065 -3.10876,0.997302 -0.396,0.09624 -0.72,0.302189 -0.72,0.457674 0,0.155481 -0.216,0.282694 -0.48,0.282694 -1.03347,0 -0.39638,-0.838432 1.20042,-1.579795 2.77725,-1.289427 4.09427,-1.619959 7.28668,-1.82873 2.38531,-0.155993 3.45687,-0.08015 4.9338,0.349203 2.41454,0.70193 5.21196,2.48696 5.67428,3.620765 1.15238,2.826096 0.73234,8.499011 -0.80728,10.902867 -0.94426,1.47431 -2.85673,2.59596 -4.4479,2.60866 -0.98445,0.008 -1.04735,0.32768 -0.67462,3.43035 0.16491,1.37275 0.31816,1.68022 0.87722,1.76 0.48345,0.069 0.6774,0.32574 0.6774,0.89668 0,0.75348 -0.10235,0.80139 -1.76,0.82382 -0.968,0.0131 -3.92,-0.16731 -6.56,-0.40092 z m 25.92,-3.68637 c -0.528,-0.19672 -1.14139,-0.61324 -1.36309,-0.92561 -0.24336,-0.34288 -0.78408,-0.55711 -1.36451,-0.5406 -1.20184,0.0342 -1.17806,0.0622 -1.41524,-1.67032 -0.38343,-2.80082 -0.49187,-3.01657 -1.96884,-3.9171 -2.00339,-1.221486 -2.49042,-2.499524 -2.29135,-6.012836 0.31817,-5.615155 3.49698,-9.457379 9.27925,-11.215808 3.81519,-1.16023 4.72934,-0.849315 8.13972,2.768445 2.63509,2.795325 3.77249,5.098941 3.77909,7.653904 0.006,2.196179 -0.95673,4.525664 -2.436,5.896291 -0.82016,0.759934 -0.87083,0.939754 -0.62386,2.214184 0.16521,0.85252 0.14143,1.77743 -0.0617,2.4 -0.18178,0.55711 -0.37615,1.19292 -0.43194,1.41292 -0.0558,0.22 -0.56262,0.4 -1.12629,0.4 -0.56367,0 -1.25218,0.20169 -1.53004,0.4482 -1.16616,1.03458 -5.01996,1.67149 -6.5852,1.08833 z m 5.32284,-2.26899 c 0.94444,-0.4325 1.95011,-0.86481 2.23483,-0.96067 0.60263,-0.2029 0.8825,-1.34301 0.67565,-2.75239 -0.13376,-0.9114 -0.22494,-0.9769 -1.13629,-0.81634 -0.54498,0.096 -1.14075,0.29882 -1.32395,0.45068 -0.33768,0.27992 -3.8776,0.91801 -6.65145,1.19895 -1.45739,0.1476 -1.51003,0.18789 -1.3105,1.003 0.11434,0.46708 0.32961,0.89723 0.47838,0.9559 0.14877,0.0587 0.27049,0.27731 0.27049,0.48588 0,0.20857 0.396,0.63416 0.88,0.94576 1.16489,0.74997 3.58952,0.53945 5.88284,-0.51077 z M 182.08,100.30916 c 0.616,-0.0486 1.552,-0.26334 2.08,-0.477294 0.528,-0.213956 1.248,-0.430628 1.6,-0.481492 2.02802,-0.293062 2.65077,-0.559171 3.55735,-1.520105 1.31978,-1.398896 1.72574,-3.175082 1.25942,-5.510269 -0.0703,-0.352 -0.13882,-0.797968 -0.15229,-0.991037 C 190.41102,91.135894 190.112,90.645859 189.76,90.24 c -0.352,-0.405859 -0.64,-0.865971 -0.64,-1.02247 0,-0.303453 -0.43271,-0.877197 -1.39403,-1.848384 -0.34378,-0.347306 -0.49146,-0.766093 -0.35056,-0.99408 0.15612,-0.252605 0.11113,-0.312157 -0.12538,-0.165984 -0.21058,0.130147 -0.69612,-0.152496 -1.13153,-0.658688 -0.6694,-0.778231 -0.99232,-0.888 -2.64058,-0.897645 -3.37187,-0.01971 -7.17749,2.278131 -9.06159,5.47143 -1.39388,2.362455 -1.93541,5.505005 -1.27506,7.39929 0.40295,1.15591 2.58692,2.782251 3.4375,2.559821 0.32547,-0.08511 0.86839,0.0514 1.2065,0.30335 0.43388,0.32332 0.99129,0.3923 1.89473,0.23445 0.704,-0.123 1.784,-0.26337 2.4,-0.31193 z m 92.16,6.9208 c 0,-0.15952 -0.27003,-0.21943 -0.60006,-0.13312 -1.22245,0.31967 -4.34759,-1.81874 -4.69794,-3.21462 -0.11626,-0.46322 -0.3315,-0.84222 -0.47832,-0.84222 -0.3007,0 -0.21806,-0.58347 0.35224,-2.48696 0.34444,-1.149645 0.32394,-1.378896 -0.16729,-1.870122 -0.47304,-0.473046 -0.53995,-1.014966 -0.43148,-3.494931 0.0899,-2.056317 0.29221,-3.185133 0.67561,-3.770272 0.30098,-0.45936 0.54724,-1.048845 0.54724,-1.309968 0,-0.776003 1.45665,-2.142669 2.04366,-1.917411 0.2867,0.110016 0.84417,-0.009 1.23881,-0.264531 1.31357,-0.850467 4.56653,-1.389005 4.92144,-0.814759 0.0999,0.161591 0.49085,0.430791 0.86884,0.598221 0.57099,0.252915 0.52485,0.274013 -0.27275,0.124711 -1.21322,-0.227111 -1.33116,-0.226308 -2.88,0.01962 -1.77281,0.281488 -3.01061,1.060784 -4.23531,2.666473 -0.98981,1.297722 -1.04469,1.512263 -1.04469,4.08369 0,1.727853 0.11628,2.642147 0.32,2.516237 0.176,-0.108775 0.32,-0.459642 0.32,-0.779703 0,-0.320064 0.23697,-0.778601 0.5266,-1.018973 0.48237,-0.400332 0.50712,-0.281142 0.29468,1.41914 -0.21052,1.684976 -0.16316,1.923148 0.5134,2.582259 1.27902,1.245999 3.21678,1.797269 6.31756,1.797269 2.14278,0 2.88159,-0.11025 3.01175,-0.44943 0.12251,-0.31924 -0.0462,-0.42543 -0.58225,-0.36658 -0.94633,0.10388 -1.29789,-0.11931 -1.57191,-0.997957 -0.26178,-0.83935 0.33891,-1.036688 2.17438,-0.714317 1.42552,0.250372 3.1851,0.04901 3.34312,-0.382566 0.059,-0.161222 0.22272,-0.221818 0.36374,-0.134659 0.50362,0.311254 0.91946,-0.670682 1.28507,-3.034483 0.49574,-3.205159 0.4356,-4.034775 -0.37158,-5.126554 -0.80197,-1.08472 -1.27863,-1.320061 -2.93259,-1.44791 -1.71968,-0.132928 -1.76314,-0.352205 -0.11868,-0.598807 2.36816,-0.355126 4.43308,0.851213 5.00547,2.924218 0.48223,1.746518 0.0413,6.666867 -0.66546,7.425465 -0.32632,0.350256 -0.5933,0.751696 -0.5933,0.892093 0,0.282749 -1.32247,0.908597 -2.56,1.211507 -0.63408,0.1552 -0.92053,0.57225 -1.38116,2.01084 -0.38251,1.19466 -0.46454,1.85391 -0.24,1.92876 1.13041,0.3768 -0.60977,2.12995 -2.15786,2.17395 -3.01479,0.0857 -3.26098,0.13147 -3.26098,0.60644 0,0.35556 -0.37333,0.48 -1.44,0.48 -0.792,0 -1.44,-0.13052 -1.44,-0.29004 z m 4.78942,-1.6646 c 0.80075,-0.23991 1.29224,-0.57998 1.29495,-0.89601 0.003,-0.28014 0.0944,-0.84544 0.20435,-1.25622 l 0.19998,-0.74687 -3.04284,0.19296 c -3.04051,0.19281 -3.04436,0.1921 -5.03509,-0.93313 -1.09574,-0.61935 -2.03466,-1.12609 -2.0865,-1.12609 -0.0518,0 -0.15636,0.53199 -0.23226,1.1822 -0.11829,1.01318 0.0106,1.31858 0.90154,2.13626 0.57176,0.52474 1.51811,1.1154 2.10301,1.31258 1.5375,0.51831 4.20142,0.58117 5.69286,0.13432 z M 160.96,105.92 c 0,-0.176 0.216,-0.32 0.48,-0.32 0.264,0 0.48,0.144 0.48,0.32 0,0.176 -0.216,0.32 -0.48,0.32 -0.264,0 -0.48,-0.144 -0.48,-0.32 z m -9.43006,-1.26392 c -0.24467,-0.39588 0.51854,-0.75883 1.26827,-0.60314 0.28358,0.0589 0.51247,0.25106 0.50864,0.42706 -0.01,0.44416 -1.51881,0.59371 -1.77691,0.17608 z m -1.76352,-1.76835 c -0.2524,-0.30412 -0.27668,-0.48773 -0.0645,-0.48773 0.38674,0 0.83763,0.6071 0.61571,0.82902 -0.0805,0.0805 -0.32859,-0.073 -0.55122,-0.34129 z m 1.49358,-0.0544 c -0.41731,-0.41731 -0.21808,-0.75333 0.44667,-0.75333 0.3724,0 0.61075,0.16773 0.54,0.38 -0.15588,0.46763 -0.6902,0.6698 -0.98667,0.37333 z m 6.9,-0.32914 c -0.8914,-0.62181 -0.92465,-1.06419 -0.08,-1.06419 0.352,0 0.64,0.144 0.64,0.32 0,0.176 0.216,0.32 0.48,0.32 0.264,0 0.48,0.216 0.48,0.48 0,0.60958 -0.59756,0.58764 -1.52,-0.0558 z m 92.24,-4.481291 c -2.64,-0.233609 -5.32066,-0.422275 -5.95703,-0.419254 -0.63636,0.0029 -1.33,-0.202928 -1.54141,-0.457667 -0.31169,-0.375562 -0.22904,-0.564954 0.43703,-1.001373 0.77237,-0.506077 0.82141,-0.696346 0.82141,-3.186717 0,-2.527926 -0.0349,-2.657274 -0.76712,-2.841043 -1.34564,-0.337735 -2.59658,-3.179251 -3.29474,-7.484026 C 239.919,81.528234 240.50155,79.68 241.02885,79.68 c 0.1863,0 0.23007,0.610061 0.10905,1.52 -0.42694,3.210211 2.11612,9.050675 3.71929,8.541846 0.59619,-0.189222 1.54281,0.495088 1.54281,1.115296 0,0.188573 -0.27166,0.342858 -0.60368,0.342858 -0.69053,0 -0.90183,0.903718 -0.86166,3.685274 0.0139,0.965164 -0.11866,1.763948 -0.29466,1.775068 -0.176,0.01114 -0.032,0.136247 0.32,0.278048 0.91172,0.367287 2.72,0.0384 2.72,-0.49471 0,-0.494755 0.82118,-0.607171 1.10311,-0.151011 0.0995,0.160966 -2e-5,0.3656 -0.22112,0.454736 -0.22109,0.08914 0.42601,0.173437 1.43801,0.187331 1.43345,0.01968 1.84,-0.08079 1.84,-0.454736 0,-0.533747 0.62986,-0.575315 2.94298,-0.19424 l 1.50298,0.247613 -0.19637,-2.102938 c -0.10801,-1.156614 -0.38128,-2.28784 -0.60728,-2.513833 -0.24076,-0.240768 -1.24549,-0.421783 -2.4266,-0.437188 -1.10864,-0.01446 -2.11012,-0.08334 -2.2255,-0.153068 -0.11539,-0.06973 -0.0434,-0.485556 0.16,-0.924064 0.4071,-0.877725 1.16979,-1.083876 1.16979,-0.316186 0,0.359382 0.20963,0.433485 0.80416,0.284266 0.44228,-0.111005 0.99253,-0.04548 1.22278,0.145603 0.25254,0.209584 1.05564,0.27199 2.02412,0.157286 1.48005,-0.175289 1.59412,-0.249648 1.45991,-0.951699 -0.16424,-0.859181 0.2902,-1.003101 0.88903,-0.281552 0.62827,0.757024 1.14807,0.575866 2.33864,-0.815046 0.90182,-1.053568 1.16437,-1.694992 1.40808,-3.44 0.64997,-4.653872 -0.0832,-7.477888 -2.22972,-8.587876 -3.75734,-1.942998 -7.82485,-2.252252 -11.76824,-0.894748 -1.31382,0.452278 -2.71276,0.901065 -3.10876,0.997302 -0.396,0.09624 -0.72,0.302189 -0.72,0.457674 0,0.155481 -0.216,0.282694 -0.48,0.282694 -1.03347,0 -0.39638,-0.838432 1.20042,-1.579795 2.77725,-1.289427 4.09427,-1.619959 7.28668,-1.82873 2.38531,-0.155993 3.45687,-0.08015 4.9338,0.349203 2.41454,0.70193 5.21196,2.48696 5.67428,3.620765 1.15238,2.826096 0.73234,8.499011 -0.80728,10.902871 -0.94426,1.474304 -2.85673,2.595952 -4.4479,2.608659 -0.98445,0.0079 -1.04735,0.327677 -0.67462,3.430352 0.16491,1.372745 0.31816,1.680214 0.87722,1.76 0.48345,0.06899 0.6774,0.325731 0.6774,0.896675 0,0.753475 -0.10235,0.801386 -1.76,0.823824 -0.968,0.01312 -3.92,-0.167312 -6.56,-0.400925 z M 133,96.28 c -0.11,-0.55 -0.2,-1.79311 -0.2,-2.762464 0,-1.389898 -0.1415,-1.88519 -0.66938,-2.343018 -0.36816,-0.319305 -0.58181,-0.722243 -0.47478,-0.895424 0.10703,-0.17318 0.0482,-0.405321 -0.13062,-0.515868 -0.68579,-0.423844 -0.34555,-2.599133 0.61364,-3.923264 1.2086,-1.66842 1.31841,-1.725709 3.30757,-1.725508 3.06687,3.08e-4 4.71357,1.112714 4.71357,3.184196 0,0.716969 -0.144,1.392576 -0.32,1.50135 -0.176,0.108774 -0.32,0.676813 -0.32,1.262307 0,0.585495 -0.21511,1.476995 -0.47803,1.981114 -0.26291,0.504118 -0.47891,1.600579 -0.48,2.436579 -0.002,1.30601 -0.0921,1.52 -0.64197,1.52 -0.50872,0 -0.64,-0.213334 -0.64,-1.04 0,-1.017024 -0.0314,-1.04 -1.4194,-1.04 -1.35464,0 -1.4285,0.04854 -1.61904,1.064256 -0.11031,0.587974 -0.0492,1.24559 0.13661,1.469443 0.3973,0.478717 0.13166,0.826301 -0.6315,0.826301 -0.35627,0 -0.61633,-0.348291 -0.74667,-1 z m 4.50908,-4.998832 c 0.214,-0.308643 0.502,-0.710797 0.64,-0.893674 0.28249,-0.374339 0.39691,-0.759216 0.72598,-2.441977 0.18367,-0.939251 0.0949,-1.343498 -0.44319,-2.018343 -0.61108,-0.766358 -0.84617,-0.834825 -2.55979,-0.745516 -1.62068,0.08447 -1.978,0.22071 -2.53245,0.965584 -1.14344,1.536147 -0.65421,5.41079 0.62139,4.921296 0.38378,-0.147268 0.84409,0.263532 0.95408,0.851462 0.0247,0.132 0.0629,0.301949 0.0849,0.377661 0.0953,0.327878 2.15574,-0.506871 2.50908,-1.016493 z M 144.92529,92.24 c 0.8068,-1.467798 1.2596,-1.851866 1.6866,-1.43057 0.33907,0.334541 0.24058,0.551924 -0.53846,1.18849 -1.13023,0.92353 -1.57415,1.01713 -1.14814,0.24208 z M 257.6,92.48 c 0,-0.176 0.216,-0.32 0.48,-0.32 0.264,0 0.48,0.144 0.48,0.32 0,0.176 -0.216,0.32 -0.48,0.32 -0.264,0 -0.48,-0.144 -0.48,-0.32 z m -9.43006,-1.26392 c -0.24467,-0.395875 0.51854,-0.758826 1.26827,-0.603142 0.28358,0.05888 0.51247,0.251062 0.50864,0.427062 -0.01,0.44416 -1.51881,0.593709 -1.77691,0.17608 z m -1.76352,-1.768346 C 246.15402,89.14361 246.12974,88.96 246.34193,88.96 c 0.38674,0 0.83763,0.607104 0.61571,0.829024 -0.0805,0.08054 -0.32859,-0.07304 -0.55122,-0.34129 z M 247.9,89.393334 C 247.48269,88.976022 247.68192,88.64 248.34667,88.64 c 0.3724,0 0.61075,0.167734 0.54,0.38 -0.15588,0.467629 -0.6902,0.669805 -0.98667,0.373334 z m 6.9,-0.329148 C 253.9086,88.442378 253.87535,88 254.72,88 c 0.352,0 0.64,0.144 0.64,0.32 0,0.176 0.216,0.32 0.48,0.32 0.264,0 0.48,0.216 0.48,0.48 0,0.609584 -0.59756,0.587642 -1.52,-0.05581 z M 280.64,88 c 0,-0.176 0.1525,-0.32 0.33889,-0.32 0.18638,0 0.24988,0.144 0.14111,0.32 -0.10877,0.176 -0.26127,0.32 -0.33889,0.32 -0.0776,0 -0.14111,-0.144 -0.14111,-0.32 z m -1.02,-0.218595 c 0.231,-0.09244 0.507,-0.08107 0.61333,0.02525 0.10634,0.106333 -0.0827,0.181965 -0.42,0.16807 -0.37278,-0.01536 -0.4486,-0.09118 -0.19333,-0.193331 z M 241.56529,78.8 c 0.8068,-1.467798 1.2596,-1.851866 1.6866,-1.43057 0.33907,0.334541 0.24058,0.551924 -0.53846,1.18849 -1.13023,0.92353 -1.57415,1.01713 -1.14814,0.24208 z m -14.58841,-6.877139 c -0.38671,-0.179079 -0.84054,-0.719811 -1.0085,-1.201632 -0.18944,-0.543408 -0.62111,-0.955277 -1.13689,-1.08473 -0.80523,-0.202102 -1.12111,-0.939734 -0.55282,-1.290953 0.15327,-0.09473 0.36985,-0.628116 0.48128,-1.185312 0.17391,-0.869536 0.0437,-1.167386 -0.91866,-2.102064 -0.61671,-0.598938 -1.12129,-1.281588 -1.12129,-1.516996 0,-0.235411 -0.21511,-0.840476 -0.47803,-1.344595 -0.26291,-0.504118 -0.47891,-1.175731 -0.48,-1.49247 -0.002,-0.653287 0.83579,-2.387587 1.45095,-3.002749 0.22547,-0.225462 0.4588,-0.520502 0.51851,-0.655645 0.27481,-0.621949 2.76499,-2.174025 3.60405,-2.246329 0.51452,-0.04434 1.18359,-0.305143 1.48681,-0.579562 0.34535,-0.312534 0.59429,-0.370074 0.66631,-0.15401 0.0717,0.21505 0.5963,0.08945 1.39319,-0.333561 0.99919,-0.530391 1.8512,-0.679696 3.9031,-0.683978 2.69203,-0.0056 5.44667,0.295709 6.01511,0.657984 0.176,0.112167 0.392,0.218583 0.48,0.236477 2.06272,0.419472 6.31789,3.52065 6.44268,4.695434 0.16609,1.56358 0.13932,3.382169 -0.0577,3.92183 -0.6427,1.760138 -2.72528,3.074486 -5.41693,3.418714 -0.45995,0.05882 -0.95937,0.436688 -1.19122,0.901286 -0.36073,0.72287 -0.33065,0.816826 0.31199,0.974525 0.67414,0.165427 0.65701,0.20656 -0.3285,0.788829 -0.74344,0.439251 -0.98806,0.777065 -0.85843,1.185475 0.0997,0.314144 0.0276,0.589171 -0.16029,0.611171 -0.18786,0.02198 -0.52156,0.06282 -0.74156,0.09071 -0.22,0.0279 -0.48543,-0.0701 -0.58986,-0.21775 -0.10442,-0.147651 -0.93516,0.01475 -1.8461,0.36087 -2.61975,0.995424 -7.36612,1.823805 -8.03968,1.403159 -0.30922,-0.193114 -0.68871,-0.233536 -0.84329,-0.08982 -0.15459,0.143712 -0.59747,0.114774 -0.98419,-0.0643 z M 230.56,70.91287 c 4.34985,-0.506326 7.8524,-1.704697 8.42908,-2.883942 0.236,-0.482586 0.3428,-0.963709 0.23735,-1.069165 -0.10546,-0.105456 -1.09055,-0.0044 -2.18909,0.224618 -2.99414,0.624147 -4.68758,0.757705 -5.12499,0.404192 -0.37198,-0.300621 -5.09453,-1.734589 -5.20717,-1.581117 -0.0293,0.0399 -0.14234,0.540544 -0.25122,1.112544 -0.16956,0.890794 -0.10674,1.04 0.43782,1.04 0.55707,0 0.61168,0.15071 0.44113,1.217322 -0.17005,1.063376 -0.0997,1.260137 0.55621,1.555891 0.41299,0.186214 0.89488,0.291337 1.07088,0.233609 0.176,-0.05773 0.896,-0.172006 1.6,-0.253952 z m 7.1818,-5.813436 c 1.14734,-0.591444 2.69077,-0.977002 5.1382,-1.283552 1.7104,-0.214234 2.82339,-1.173063 3.16369,-2.725488 0.32289,-1.472976 -0.002,-2.610996 -0.86979,-3.043466 -0.39515,-0.197002 -0.91732,-0.630154 -1.16038,-0.962557 -0.24306,-0.332403 -0.56154,-0.612608 -0.70772,-0.622678 -0.61408,-0.04229 -3.9458,-1.234602 -3.9458,-1.412064 0,-0.610077 -6.53525,-0.434759 -8.48,0.227488 -0.528,0.179801 -1.79563,0.592419 -2.81696,0.916931 -1.94092,0.616694 -2.86348,1.490832 -3.92684,3.72073 -0.50993,1.069328 -0.50149,1.175756 0.21754,2.743097 0.734,1.599975 0.75898,1.61888 1.32962,1.006365 0.31987,-0.343331 0.72448,-0.62424 0.89915,-0.62424 0.5352,0 0.73862,1.006944 0.26412,1.307395 -0.37458,0.237184 -0.3692,0.289255 0.0334,0.322784 0.264,0.02198 0.9237,0.07813 1.46599,0.124739 0.5423,0.04662 1.30128,0.253492 1.68662,0.459719 0.38534,0.206227 0.8405,0.288505 1.01147,0.182841 0.17097,-0.105664 0.56399,-0.03521 0.87339,0.156557 0.80315,0.497815 4.50977,0.18305 5.82433,-0.494601 z m 42.79439,2.903318 c -1.38911,-0.480934 -1.28215,-0.398256 -1.79914,-1.390845 -0.29629,-0.568867 -0.56865,-0.703161 -1.13686,-0.56055 -1.19187,0.299142 -1.18837,0.176985 0.1577,-5.500682 0.25165,-1.061437 0.22438,-1.52912 -0.12127,-2.08 -0.92216,-1.469715 -1.2854,-3.869357 -0.88643,-5.855984 0.41267,-2.054845 1.17516,-3.071523 3.00879,-4.011814 1.85842,-0.953008 3.80097,-1.097299 5.9217,-0.439859 3.24925,1.007286 4.55932,2.421065 4.55932,4.920259 0,2.40135 -1.5576,5.037245 -4.35503,7.369929 -1.42743,1.190288 -1.74762,1.659674 -2.02986,2.975751 -0.41954,1.956214 -0.431,3.684688 -0.0254,3.824377 0.17036,0.05867 0.20636,0.264023 0.08,0.456346 -0.38847,0.591267 -2.08625,0.738758 -3.37355,0.293072 z M 282.24179,66.32 c 9.6e-4,-0.66 0.13571,-1.704 0.29941,-2.32 0.16369,-0.616 0.34289,-1.550787 0.39821,-2.077302 0.0975,-0.927767 0.0631,-0.954119 -1.11542,-0.854103 -0.6688,0.05676 -1.43091,-0.07515 -1.69356,-0.293136 -0.79269,-0.657872 -1.25801,0.163431 -1.1898,2.100016 0.0676,1.919779 0.69681,3.394285 1.76874,4.145101 1.14486,0.801888 1.53044,0.625613 1.53242,-0.700576 z m -0.002,-6.804342 c 0,-0.178388 -0.18,-0.614781 -0.4,-0.969764 -0.3297,-0.531984 -0.31564,-0.699088 0.08,-0.950758 0.67728,-0.430832 1.31746,-0.387581 1.25611,0.08486 -0.116,0.893341 0.081,1.038442 1.36287,1.003766 1.06851,-0.0289 1.48914,-0.223097 2.07934,-0.96 1.05096,-1.312169 2.34168,-4.048553 2.34168,-4.96446 0,-3.30248 -6.93224,-4.86072 -9.3737,-2.107034 -0.88613,0.999453 -1.50823,2.588029 -1.49496,3.81745 0.0133,1.237558 0.71844,2.650278 1.32273,2.650278 0.23772,0 0.47008,0.424208 0.52584,0.96 0.055,0.528 0.33447,1.14 0.62116,1.36 0.62679,0.480989 1.67893,0.5284 1.67893,0.07566 z M 164.3131,65.059952 c -0.30907,-1.855795 -0.36356,-1.944413 -1.33169,-2.165549 -1.67166,-0.381833 -2.39495,-1.273382 -2.39495,-2.952083 0,-0.936029 0.17321,-1.639587 0.45475,-1.847114 0.25011,-0.184364 0.4037,-0.48646 0.34129,-0.671328 -0.16181,-0.479366 2.03012,-2.952025 3.11352,-3.512268 2.59336,-1.341082 7.66377,0.540412 7.66377,2.84382 0,1.252295 -1.12642,3.55033 -2.03066,4.142813 -0.74629,0.488992 -0.81773,0.713559 -0.73902,2.323072 0.0708,1.44777 -0.0214,1.839811 -0.4916,2.091479 -0.52268,0.279731 -0.57872,0.153696 -0.57872,-1.301536 0,-0.886192 -0.0802,-1.611258 -0.1783,-1.611258 -0.0981,0 -0.83143,0.164461 -1.6297,0.365469 -1.38127,0.347808 -1.44471,0.413523 -1.31291,1.36 0.0762,0.546992 0.19754,1.201977 0.2697,1.455526 0.0722,0.253549 -0.11258,0.514525 -0.41055,0.579952 -0.41093,0.09023 -0.59082,-0.175641 -0.74493,-1.100995 z M 164.16,61.611258 c 0,-0.5192 1.21871,-1.29921 1.53529,-0.982631 0.11027,0.110263 0.0117,0.50281 -0.21909,0.87232 -0.36927,0.59129 -0.35508,0.647098 0.11829,0.46545 0.29582,-0.11352 0.74714,-0.206397 1.00294,-0.206397 0.37176,0 0.39367,-0.13345 0.10919,-0.665005 -0.19575,-0.365753 -0.26253,-0.905753 -0.14841,-1.2 0.18931,-0.488105 0.24056,-0.490131 0.58473,-0.0231 0.89003,1.20769 3.47919,-0.578441 3.68106,-2.539373 0.17137,-1.664726 -1.29954,-2.612518 -4.05442,-2.612518 -1.29072,0 -1.64834,0.150294 -2.47464,1.04 -1.78953,1.926835 -2.56551,3.61807 -2.41036,5.253334 0.0195,0.205332 0.43142,0.517965 0.91542,0.694736 1.2229,0.44664 1.36,0.43688 1.36,-0.09681 z m -32,-8.155357 c 0,-1.687411 -0.13487,-2.630269 -0.40052,-2.8 -0.22029,-0.140746 -0.61575,-0.672698 -0.87881,-1.182119 -0.7152,-1.385011 -0.51844,-5.62119 0.27335,-5.885123 0.20129,-0.06709 0.36598,-0.390665 0.36598,-0.71904 0,-0.920857 1.94305,-2.229619 3.3102,-2.229619 0.64339,0 1.1698,0.137475 1.1698,0.305501 0,0.168022 0.54,0.40327 1.2,0.522768 3.42874,0.620793 5.11192,3.093353 3.80744,5.593059 -0.23573,0.451731 -0.52707,1.213619 -0.6474,1.693088 -0.12034,0.479469 -0.3513,0.789869 -0.51325,0.689779 -0.42492,-0.262614 -0.71378,1.652506 -0.54309,3.60072 0.19076,2.177267 -0.51664,2.295223 -0.93007,0.155085 -0.3121,-1.615606 -0.24237,-1.579152 -2.53363,-1.324541 -0.352,0.03911 -1.07587,-0.02925 -1.6086,-0.151917 l -0.96861,-0.22303 0.0271,1.441568 c 0.0149,0.792864 0.13694,1.551411 0.27119,1.685664 0.25062,0.250618 0.32088,0.264464 1.95892,0.386006 0.82979,0.06157 0.87319,0.106781 0.32,0.333322 -0.352,0.14415 -1.01853,0.19152 -1.48119,0.10527 -0.46266,-0.08625 -0.93915,0.0016 -1.05889,0.195421 C 133.18019,55.841494 132.87473,56 132.62111,56 132.25829,56 132.16,55.45768 132.16,53.455901 Z m 3.53467,-3.188493 c -0.44568,-0.832755 -0.002,-0.883533 1.14623,-0.131184 0.78193,0.512336 0.81385,0.508774 0.71673,-0.08 -0.13883,-0.8416 0.27553,-1.416224 1.02126,-1.416224 0.34161,0 0.62111,-0.208845 0.62111,-0.464099 0,-0.255255 0.22055,-0.587527 0.49012,-0.738384 0.78393,-0.438711 0.9542,-2.409251 0.29509,-3.415175 -0.60624,-0.925244 -2.8648,-2.205072 -4.52436,-2.563763 -0.79037,-0.170825 -1.16369,-0.07574 -1.66298,0.423555 -1.09529,1.09529 -1.71542,2.645872 -1.88046,4.701936 -0.15264,1.901556 -0.12027,2.009405 0.89409,2.978781 0.89455,0.85488 2.78625,1.73384 3.13443,1.456378 0.0583,-0.04643 -0.0548,-0.384749 -0.25126,-0.751821 z m 60.07598,0.436573 c -0.0968,-0.09681 -0.0522,-0.708813 0.099,-1.36 0.15128,-0.651191 0.27849,-1.579981 0.28268,-2.063981 0.007,-0.780813 -0.10958,-0.880134 -1.03236,-0.881197 -0.572,-6.4e-4 -1.48638,-0.273392 -2.03196,-0.606077 -0.86812,-0.529372 -1.01919,-0.83663 -1.21013,-2.461267 -0.15927,-1.355101 -0.0709,-2.336374 0.32739,-3.63392 C 193.46386,35.596979 195.26122,34.4 200.16,34.4 c 5.46522,0 6.59064,1.488582 4.41523,5.84 -0.46193,0.924 -0.94979,1.68 -1.08412,1.68 -0.23674,0 -1.26146,1.824246 -1.24093,2.209165 0.006,0.10496 0.21468,-0.07923 0.46462,-0.409303 0.26954,-0.355945 0.66163,-0.520633 0.96363,-0.404745 0.72591,0.27856 0.10759,1.323661 -1.20831,2.042307 -1.0484,0.57256 -1.1439,0.806419 -1.30699,3.200598 -0.10404,1.5273 -0.29149,1.839341 -0.95253,1.585674 -0.36578,-0.140362 -0.39953,-0.482989 -0.16909,-1.716477 0.15835,-0.847609 0.22757,-1.698339 0.15383,-1.890505 -0.0737,-0.192167 -0.71146,-0.37202 -1.41715,-0.399671 -1.26866,-0.04971 -1.2858,-0.03503 -1.52475,1.306339 -0.13292,0.746141 -0.27076,1.716618 -0.3063,2.156618 -0.0355,0.44 -0.0832,0.908 -0.10588,1.04 -0.0478,0.277946 -0.81104,0.323558 -1.07061,0.06398 z M 196.16,44.48 c 0.37138,-0.693936 1.15394,-0.858192 1.34584,-0.282486 0.0655,0.196633 0.67494,0.376633 1.35421,0.4 1.06413,0.03661 1.2432,-0.05713 1.29401,-0.677357 0.079,-0.964739 0.37662,-1.209245 0.92147,-0.757063 0.36387,0.301981 0.59719,0.144746 1.20773,-0.813884 1.3029,-2.045725 1.50706,-2.474292 1.92741,-4.04593 0.63764,-2.384042 0.33764,-2.62328 -3.28949,-2.62328 -4.01766,0 -5.41935,0.607386 -6.58814,2.85479 -1.03349,1.987258 -1.17981,5.467108 -0.25822,6.140989 0.8595,0.628483 1.68556,0.550925 2.08518,-0.195779 z M 132.32,26.809552 c -0.79723,-0.442035 -1.1088,-0.890463 -1.1151,-1.604946 -0.006,-0.674009 3.04518,-2.286991 5.57013,-2.944657 0.95669,-0.249188 2.00169,-0.590894 2.32221,-0.759347 0.32052,-0.168454 1.17573,-0.404444 1.90047,-0.524423 1.04541,-0.173066 1.35801,-0.113119 1.51274,0.290096 0.11026,0.287336 -0.0553,0.748488 -0.38099,1.060983 -1.47532,1.415699 -2.63874,2.313357 -3.00669,2.319858 -0.22152,0.0039 -0.76277,0.288711 -1.20277,0.632884 -0.44,0.344173 -0.95788,0.628971 -1.15084,0.632884 -0.19296,0.0039 -0.76896,0.206394 -1.28,0.449956 -1.4455,0.688926 -2.47149,0.833545 -3.16916,0.446712 z M 47.112381,25.094809 c 0.303811,-0.317193 0.621261,-0.507834 0.705446,-0.423648 0.08419,0.08419 -0.164384,0.343707 -0.552381,0.576714 -0.674019,0.404774 -0.680838,0.397954 -0.153065,-0.153066 z M 48.96,23.667629 c 1.866826,-1.48912 4.627907,-3.209677 5.403795,-3.367353 1.219683,-0.247864 5.021696,-1.554863 7.236205,-2.487554 1.056,-0.444758 3.709654,-1.098455 5.897014,-1.45266 2.53216,-0.410039 4.276004,-0.861462 4.8,-1.24256 C 73.463046,14.269455 73.92,14.015797 73.92,14.216574 c 0,0.09589 -0.57679,0.556046 -1.281754,1.02257 -1.076441,0.712354 -1.269888,1.003956 -1.207676,1.820432 0.04075,0.534714 -0.09772,1.029476 -0.307712,1.099471 -0.209984,0.06999 -0.917018,0.490478 -1.571181,0.934406 -1.784298,1.210856 -2.720679,1.529975 -5.421357,1.847598 -1.627152,0.191366 -1.905264,0.247034 -5.667747,1.13447 -1.549584,0.365492 -2.989584,0.63173 -3.2,0.591641 -0.210416,-0.04009 -1.102573,0.04836 -1.982573,0.19656 -0.88,0.148197 -1.936282,0.311972 -2.347293,0.363944 -0.411011,0.05197 -1.089945,0.319007 -1.508742,0.593414 -1.086906,0.712169 -1.413664,0.604099 -0.463965,-0.153451 z m 25.6,-9.816133 c 0.264,-0.09789 0.768,-0.310463 1.12,-0.47239 0.62976,-0.289702 0.630061,-0.286449 0.01885,0.203241 -0.341638,0.273709 -0.845638,0.486285 -1.12,0.47239 -0.430912,-0.02182 -0.433475,-0.0495 -0.01885,-0.203241 z m 6.925763,-0.449955 C 80.989389,13.26879 79.660029,13.210804 78.531632,13.272683 76.276646,13.396342 75.792035,13.020116 77.68,12.611521 c 1.641005,-0.355149 2.014954,-0.364167 3.096112,-0.07467 0.514861,0.137862 1.414861,0.282901 2,0.322307 0.585139,0.03941 1.063888,0.169431 1.063888,0.288941 0,0.360751 -1.392477,0.510656 -2.354237,0.253442 z"
     id="path817"
     inkscape:connector-curvature="0" />
</svg>
